<?xml version="1.0" encoding="UTF-8"?>
<svg version="1.1" xmlns="http://www.w3.org/2000/svg" width="774" height="322">
<path d="M0 0 C1.32 0 2.64 0 4 0 C4 68.31 4 136.62 4 207 C4.66 207 5.32 207 6 207 C6.33 207.66 6.66 208.32 7 209 C13.6 209 20.2 209 27 209 C27 210.32 27 211.64 27 213 C20.07 213 13.14 213 6 213 C6 213.66 6 214.32 6 215 C5.34 215 4.68 215 4 215 C4 221.93 4 228.86 4 236 C2.68 236 1.36 236 0 236 C0 229.4 0 222.8 0 216 C-0.66 215.67 -1.32 215.34 -2 215 C-2 214.34 -2 213.68 -2 213 C-70.31 213 -138.62 213 -209 213 C-209 211.68 -209 210.36 -209 209 C-163.13 209 -117.26 209 -70 209 C-70 187.22 -70 165.44 -70 143 C-82.23736997 130.71927833 -82.23736997 130.71927833 -95 119 C-96.8110868 117.22796628 -98.60579675 115.43885191 -100.375 113.625 C-103.38439823 110.39765198 -103.38439823 110.39765198 -107 108 C-107 107.34 -107 106.68 -107 106 C-107.66 106 -108.32 106 -109 106 C-110.72739598 104.37220163 -112.36206911 102.71458414 -114 101 C-115.18090454 99.81372313 -116.36466318 98.63028279 -117.55078125 97.44921875 C-121.03385417 93.96614583 -124.51692708 90.48307292 -128 87 C-132.19019099 88.63098808 -134.94223982 91.72333355 -138.0078125 94.8828125 C-138.57450653 95.45707977 -139.14120056 96.03134705 -139.72506714 96.62301636 C-141.52993935 98.45227159 -143.32820279 100.28781452 -145.125 102.125 C-147.4969309 104.54993494 -149.87526304 106.96831502 -152.2578125 109.3828125 C-153.07658371 110.22647873 -153.07658371 110.22647873 -153.91189575 111.08718872 C-155.23704824 112.4295923 -156.61418422 113.72031601 -158 115 C-158.66 115 -159.32 115 -160 115 C-160 115.66 -160 116.32 -160 117 C-161.3248291 118.30358887 -161.3248291 118.30358887 -163.24414062 119.87304688 C-168.58300186 124.41736855 -173.48258843 129.36975267 -178.41670227 134.34153748 C-180.13094586 136.06872676 -181.84845302 137.7926132 -183.56677246 139.51574707 C-187.21402441 143.17433971 -190.85731315 146.83686281 -194.5 150.5 C-198.7264063 154.75013369 -202.95449022 158.99857062 -207.18684387 163.24278259 C-208.86603635 164.9283829 -210.54215076 166.61700141 -212.21813965 168.30578613 C-217.1536597 173.26471548 -222.11355967 178.14119461 -227.44934082 182.6754303 C-229.39593451 184.3382064 -231.20903802 186.10922631 -233 187.9375 C-233.5775 188.52402344 -234.155 189.11054688 -234.75 189.71484375 C-235.36875 190.35099609 -235.36875 190.35099609 -236 191 C-236.99 190.67 -237.98 190.34 -239 190 C-239.33 214.09 -239.66 238.18 -240 263 C-240.99 263 -241.98 263 -243 263 C-243.33 241.22 -243.66 219.44 -244 197 C-244.99 196.67 -245.98 196.34 -247 196 C-247.598125 196.66 -248.19625 197.32 -248.8125 198 C-251 200 -251 200 -254 200 C-254 197 -254 197 -252.3203125 195.24609375 C-251.59585938 194.64925781 -250.87140625 194.05242187 -250.125 193.4375 C-249.40570313 192.83808594 -248.68640625 192.23867187 -247.9453125 191.62109375 C-247.30335938 191.08613281 -246.66140625 190.55117187 -246 190 C-243.67133771 188.11153817 -243.67133771 188.11153817 -243.8046875 184.9609375 C-243.82789063 183.77757812 -243.85109375 182.59421875 -243.875 181.375 C-243.89304687 180.18648437 -243.91109375 178.99796875 -243.9296875 177.7734375 C-243.95289063 176.85820312 -243.97609375 175.94296875 -244 175 C-244.66 174.67 -245.32 174.34 -246 174 C-246.886875 174.721875 -247.77375 175.44375 -248.6875 176.1875 C-249.18636719 176.59355469 -249.68523437 176.99960938 -250.19921875 177.41796875 C-254.42336395 181.12898569 -258.27278029 185.28719627 -262.2159729 189.29292297 C-264.95754446 192.07462923 -267.70708571 194.8484009 -270.45703125 197.62182617 C-271.90859353 199.08859062 -273.35746859 200.55801908 -274.80371094 202.0300293 C-276.89601672 204.15856445 -278.9977237 206.27740256 -281.1015625 208.39453125 C-281.74848053 209.05693314 -282.39539856 209.71933502 -283.06192017 210.40180969 C-283.66619843 211.00631454 -284.27047668 211.6108194 -284.89306641 212.23364258 C-285.68651962 213.03708855 -285.68651962 213.03708855 -286.4960022 213.85676575 C-288 215 -288 215 -291 215 C-290.43831496 211.14813472 -288.75337495 209.37908636 -286.03515625 206.671875 C-284.83536133 205.47304688 -284.83536133 205.47304688 -283.61132812 204.25 C-282.77021484 203.425 -281.92910156 202.6 -281.0625 201.75 C-280.22525391 200.90953125 -279.38800781 200.0690625 -278.52539062 199.203125 C-272.26688058 193 -272.26688058 193 -270 193 C-269.67 192.01 -269.34 191.02 -269 190 C-267.0625 187.8125 -267.0625 187.8125 -265 186 C-264.34 186 -263.68 186 -263 186 C-263 185.34 -263 184.68 -263 184 C-262.34 184 -261.68 184 -261 184 C-261 183.34 -261 182.68 -261 182 C-259.56640625 180.58984375 -259.56640625 180.58984375 -257.5625 178.9375 C-256.86591782 178.31975204 -256.16933563 177.70200409 -255.4516449 177.0655365 C-253 175 -253 175 -250.61659241 173.5158844 C-246.9393736 170.82581789 -244.47348765 168.23288105 -243.50242233 163.65351486 C-242.69861677 156.21866077 -242.96980655 148.74076233 -243.12109375 141.27734375 C-243.13789358 138.84642396 -243.15069825 136.41547356 -243.15968323 133.98451233 C-243.19393816 127.606729 -243.2822528 121.23080987 -243.38201904 114.85375977 C-243.47432226 108.33830989 -243.51524158 101.8225568 -243.56054688 95.30664062 C-243.65687773 82.53696812 -243.80860444 69.76858351 -244 57 C-244.99 56.505 -244.99 56.505 -246 56 C-246 55.34 -246 54.68 -246 54 C-252.6 54 -259.2 54 -266 54 C-266 52.68 -266 51.36 -266 50 C-265.44538086 49.97494385 -264.89076172 49.9498877 -264.31933594 49.92407227 C-261.79601157 49.80772073 -259.27302464 49.68517246 -256.75 49.5625 C-255.87730469 49.52318359 -255.00460938 49.48386719 -254.10546875 49.44335938 C-253.26113281 49.40146484 -252.41679687 49.35957031 -251.546875 49.31640625 C-250.77182617 49.27974854 -249.99677734 49.24309082 -249.19824219 49.20532227 C-246.67277555 49.02533857 -246.67277555 49.02533857 -243 48 C-243 40.74 -243 33.48 -243 26 C-242.01 26 -241.02 26 -240 26 C-240 33.26 -240 40.52 -240 48 C-239.01 48 -238.02 48 -237 48 C-236.67 48.66 -236.34 49.32 -236 50 C-222.00477168 49.93944582 -208.00972865 49.86173574 -194.01470661 49.76428509 C-187.51640879 49.71953698 -181.01817431 49.68029046 -174.51977539 49.65356445 C-168.24973342 49.62757607 -161.97993464 49.58720489 -155.71004295 49.53681374 C-153.3166627 49.52011487 -150.92324035 49.50861945 -148.52980995 49.50238609 C-145.18017644 49.4927781 -141.83116935 49.46475728 -138.48168945 49.43237305 C-136.99383438 49.43452568 -136.99383438 49.43452568 -135.47592163 49.4367218 C-129.49936112 49.35487948 -125.9522062 48.6514645 -121.39428711 44.55786133 C-120.9431958 44.0708374 -120.49210449 43.58381348 -120.02734375 43.08203125 C-119.52009766 42.55029297 -119.01285156 42.01855469 -118.49023438 41.47070312 C-117.44740046 40.35703521 -116.40838151 39.23978373 -115.37304688 38.11914062 C-113.98737597 36.6734534 -112.49795362 35.32899599 -111 34 C-109.68 34 -108.36 34 -107 34 C-108.34260917 36.93050271 -109.87148538 39.20913591 -112 41.625 C-112.515625 42.21539062 -113.03125 42.80578125 -113.5625 43.4140625 C-114.67451212 44.64090196 -115.82916568 45.82916568 -117 47 C-117.33 47.66 -117.66 48.32 -118 49 C-112.51434361 50.10688544 -106.99068625 50.83532226 -102.06176758 47.81054688 C-97.14985972 43.86438927 -92.97260983 39.15575328 -88.75 34.5 C-86.8037545 32.42403682 -84.84759756 30.35790065 -82.88824463 28.29431152 C-81.67845547 27.01278274 -80.47833225 25.72204641 -79.28900146 24.42150879 C-77.89722314 22.91184174 -76.4532494 21.45058874 -75 20 C-74.34 20 -73.68 20 -73 20 C-72.34 18.68 -71.68 17.36 -71 16 C-70.34 16 -69.68 16 -69 16 C-68.5978125 15.0409375 -68.5978125 15.0409375 -68.1875 14.0625 C-67 12 -67 12 -64 11 C-64.29466546 16.45067597 -67.45593874 18.92673382 -71.1875 22.47265625 C-71.80520264 23.07758408 -72.42290527 23.6825119 -73.05932617 24.30577087 C-75.03024997 26.2345135 -77.01373042 28.14957331 -79 30.0625 C-80.9853635 31.97984196 -82.96751416 33.90003824 -84.94067383 35.8299408 C-86.16753665 37.02953044 -87.40154203 38.22186799 -88.64331055 39.40602112 C-91.49599122 42.19145222 -93.27809934 44.06626943 -94 48 C-95.32 48.33 -96.64 48.66 -98 49 C-95.44420465 50.27789768 -94.71342166 49.69713598 -92 49 C-90.27560422 48.93689507 -88.54873348 48.93007117 -86.82348633 48.96240234 C-85.27586357 48.98770523 -85.27586357 48.98770523 -83.69697571 49.01351929 C-82.58654404 49.0374173 -81.47611237 49.06131531 -80.33203125 49.0859375 C-79.18264572 49.10717682 -78.03326019 49.12841614 -76.8490448 49.15029907 C-74.41550705 49.19655789 -71.9820188 49.24548589 -69.54858398 49.296875 C-65.84433858 49.37433423 -62.14001069 49.44172741 -58.43554688 49.5078125 C-56.06769643 49.5540824 -53.69985736 49.60093863 -51.33203125 49.6484375 C-50.23172073 49.66828705 -49.13141022 49.6881366 -47.99775696 49.70858765 C-41.93613478 49.84268234 -36.01469803 50.22901612 -30 51 C-30 51.99 -30 52.98 -30 54 C-45.345 54.495 -45.345 54.495 -61 55 C-61.10492916 62.9909387 -61.20508411 70.97937562 -61.25875092 78.97040558 C-61.28512855 82.69175255 -61.32036048 86.41252791 -61.37719727 90.13354492 C-61.43162214 93.71919713 -61.46144192 97.30429591 -61.47438622 100.89032936 C-61.48360764 102.25670902 -61.50161581 103.62305919 -61.52865028 104.9892025 C-61.94629049 112.24404384 -61.94629049 112.24404384 -59.85360718 118.97891235 C-58.39738427 120.54817408 -58.39738427 120.54817408 -56 122 C-54.30803496 118.61606992 -54.88013451 114.77522209 -54.90234375 111.0546875 C-54.9037587 110.1696756 -54.90517365 109.2846637 -54.90663147 108.37283325 C-54.9122386 105.54018809 -54.92479229 102.70762136 -54.9375 99.875 C-54.94251408 97.95703239 -54.94707715 96.03906354 -54.95117188 94.12109375 C-54.96221034 89.41403218 -54.97947975 84.7070294 -55 80 C-52.36 80 -49.72 80 -47 80 C-47.01411926 80.62481262 -47.02823853 81.24962524 -47.04278564 81.89337158 C-47.17889965 88.44871112 -47.22930881 95.00089525 -47.23193359 101.55761719 C-47.24387373 103.99792249 -47.27702695 106.4382262 -47.33251953 108.87792969 C-48.28261855 124.41817686 -48.28261855 124.41817686 -41.91253662 137.87322998 C-39.4274867 140.15907035 -36.782064 142.09124502 -34 144 C-31.90853037 145.59701773 -29.96425882 147.24033615 -28 149 C-28 149.66 -28 150.32 -28 151 C-27.45182617 151.22220215 -26.90365234 151.4444043 -26.33886719 151.67333984 C-23.2826906 153.40687467 -21.01487206 155.73745218 -18.578125 158.2265625 C-17.19222168 159.6199585 -17.19222168 159.6199585 -15.77832031 161.04150391 C-14.6021808 162.23597036 -13.42608073 163.43047567 -12.25 164.625 C-10.24398012 166.65494147 -8.2366887 168.68362441 -6.22949219 170.71240234 C-5.23246285 171.72046966 -4.23545204 172.72855531 -3.23846436 173.73666382 C-2.1304245 174.85701523 -2.1304245 174.85701523 -1 176 C-0.17015944 150.86326361 0.09986964 125.73462115 0.09765625 100.5859375 C0.09759189 99.85468816 0.09752753 99.12343882 0.09746122 98.3700304 C0.09581955 89.3445701 0.08549576 80.31912802 0.07202661 71.29367852 C0.06060302 63.49608394 0.05528971 55.69848819 0.05032361 47.90088725 C0.04002616 31.93391511 0.02257796 15.96695981 0 0 Z M-243 51 C-243 51.99 -243 52.98 -243 54 C-242.01 54 -241.02 54 -240 54 C-240 53.01 -240 52.02 -240 51 C-240.99 51 -241.98 51 -243 51 Z M-238 54 C-240.08414842 57.12622262 -240.24898619 57.79928135 -240.24050903 61.3469696 C-240.24325836 62.23457977 -240.24600769 63.12218994 -240.24884033 64.03669739 C-240.24164978 65.00773911 -240.23445923 65.97878082 -240.22705078 66.97924805 C-240.22734283 68.00381104 -240.22763489 69.02837402 -240.22793579 70.08398438 C-240.22654044 73.47664811 -240.2109694 76.86909329 -240.1953125 80.26171875 C-240.19158311 82.61155579 -240.18873579 84.96139438 -240.18673706 87.31123352 C-240.17909483 93.50086752 -240.15944121 99.69040791 -240.1373291 105.88000488 C-240.11688341 112.19407891 -240.10773807 118.50816805 -240.09765625 124.82226562 C-240.07619593 137.21488492 -240.04205282 149.60743468 -240 162 C-238.87432334 161.03889151 -237.74917533 160.07716382 -236.62425232 159.11517334 C-235.99762916 158.57967739 -235.37100599 158.04418144 -234.72539425 157.49245834 C-231.70325157 154.87831839 -228.88823427 152.07249003 -226.0625 149.25 C-225.47404297 148.67378906 -224.88558594 148.09757812 -224.27929688 147.50390625 C-222.81239777 146.04211829 -221.40088212 144.52517091 -220 143 C-220 142.34 -220 141.68 -220 141 C-219.34 141 -218.68 141 -218 141 C-218 140.34 -218 139.68 -218 139 C-217.38125 138.7525 -216.7625 138.505 -216.125 138.25 C-213.86253506 137.17856271 -213.86253506 137.17856271 -213 135 C-211.75491604 132.50983207 -210.53283204 132.01313282 -208 131 C-208 130.34 -208 129.68 -208 129 C-207.40541992 128.7321167 -206.81083984 128.4642334 -206.19824219 128.18823242 C-203.97760243 126.98789327 -202.5756393 125.79297002 -200.828125 123.98828125 C-200.24546875 123.39466797 -199.6628125 122.80105469 -199.0625 122.18945312 C-198.464375 121.57005859 -197.86625 120.95066406 -197.25 120.3125 C-193.77901659 116.73784783 -190.32139636 113.22755899 -186.51464844 110.00805664 C-180.76827039 105.0078795 -175.43984745 99.58403342 -170.0625 94.1953125 C-168.93064705 93.06413434 -167.79864578 91.93310457 -166.66650391 90.80221558 C-164.31168791 88.44886405 -161.9586659 86.09373767 -159.60693359 83.73730469 C-156.58615674 80.71078511 -153.56085013 77.68883924 -150.53422546 74.66816902 C-148.20425182 72.34179578 -145.87664875 70.01306254 -143.54977417 67.68358994 C-142.43408684 66.56723426 -141.31765272 65.45162443 -140.20046997 64.33676529 C-138.64945109 62.7882693 -137.10164517 61.23663372 -135.5546875 59.68408203 C-134.67280762 58.80140656 -133.79092773 57.91873108 -132.88232422 57.00930786 C-130.88605499 55.33724546 -130.88605499 55.33724546 -131 54 C-144.91648861 53.92997824 -158.83294999 53.87724477 -172.74957848 53.84456348 C-179.21104398 53.82888124 -185.67239149 53.80759626 -192.13378906 53.77368164 C-198.36479483 53.74117951 -204.59568681 53.72316629 -210.82677078 53.71536827 C-213.20872414 53.70980829 -215.59067099 53.69895166 -217.97257614 53.68280983 C-221.29875084 53.66115733 -224.62445022 53.65802798 -227.95068359 53.65942383 C-228.94402206 53.648638 -229.93736053 53.63785217 -230.96080017 53.6267395 C-231.86386398 53.63086349 -232.7669278 53.63498749 -233.69735718 53.63923645 C-234.48456839 53.63647107 -235.27177959 53.63370569 -236.08284569 53.63085651 C-236.71550661 53.75267386 -237.34816753 53.87449121 -238 54 Z M-125 54 C-124.0925 55.155 -123.185 56.31 -122.25 57.5 C-121.73953125 58.1496875 -121.2290625 58.799375 -120.703125 59.46875 C-118.88595704 61.44572515 -118.88595704 61.44572515 -115 61 C-113.22239242 59.48990073 -113.22239242 59.48990073 -111.75 57.5 C-110.38875 55.7675 -110.38875 55.7675 -109 54 C-114.28 54 -119.56 54 -125 54 Z M-113 63 C-113.66 63.66 -114.32 64.32 -115 65 C-114.01 65 -113.02 65 -112 65 C-111.75008804 65.57490173 -111.50017609 66.14980347 -111.24269104 66.74212646 C-109.82403578 69.31971338 -108.19921045 71.04792951 -106.11694336 73.12597656 C-105.31949203 73.92650452 -104.52204071 74.72703247 -103.70042419 75.55181885 C-102.83893265 76.40612488 -101.9774411 77.26043091 -101.08984375 78.140625 C-100.20720352 79.02280701 -99.32456329 79.90498901 -98.41517639 80.81390381 C-96.55050648 82.67555417 -94.68406914 84.53518862 -92.81420898 86.39160156 C-90.41246456 88.77629496 -88.01741771 91.16758046 -85.62456417 93.56119156 C-83.34494844 95.84047095 -81.06109735 98.11549269 -78.77734375 100.390625 C-77.91382797 101.25302795 -77.05031219 102.11543091 -76.16062927 103.00396729 C-74.96918053 104.18584625 -74.96918053 104.18584625 -73.75366211 105.39160156 C-73.05131943 106.09013245 -72.34897675 106.78866333 -71.62535095 107.50836182 C-70.24488475 109.1126919 -70.24488475 109.1126919 -69 109 C-69 90.85 -69 72.7 -69 54 C-74.589375 53.814375 -80.17875 53.62875 -85.9375 53.4375 C-87.68281006 53.35556396 -89.42812012 53.27362793 -91.22631836 53.18920898 C-101.43156035 52.91338775 -106.74805708 54.23250604 -113 63 Z M-129.63769245 64.39159679 C-130.29304572 65.04879365 -130.94839899 65.70599051 -131.62361145 66.38310242 C-132.75280754 67.50817451 -132.75280754 67.50817451 -133.90481567 68.65597534 C-134.73133636 69.48968658 -135.55785706 70.32339783 -136.40942383 71.18237305 C-137.27950577 72.05216293 -138.14958771 72.92195282 -139.04603577 73.81809998 C-141.43825252 76.2114746 -143.82593199 78.60921572 -146.21174836 81.00896049 C-148.70959047 83.51929007 -151.21308267 86.02397173 -153.71598816 88.5292511 C-158.46325987 93.2827505 -163.20541163 98.04132406 -167.94576234 102.80172426 C-173.32084573 108.19905804 -178.70151234 113.5908106 -184.08270228 118.98205507 C-193.28905321 128.20579728 -202.49117628 137.43373589 -211.68859863 146.66638184 C-213.16359836 148.1469818 -214.63923728 149.62694544 -216.11570168 151.10608482 C-217.27266852 152.26895646 -218.42571449 153.43576497 -219.57202721 154.6091404 C-221.90487931 156.98988239 -223.88467586 158.73079387 -227 160 C-227.99 159.34 -228.98 158.68 -230 158 C-231.10968221 158.74181495 -232.21250456 159.49389547 -233.3125 160.25 C-233.92738281 160.66765625 -234.54226563 161.0853125 -235.17578125 161.515625 C-237.8649433 163.70380825 -239.79421458 165.31148212 -240.2331543 168.91308594 C-240.29542957 171.19973228 -240.26143247 173.46378064 -240.1875 175.75 C-240.17396484 176.54277344 -240.16042969 177.33554688 -240.14648438 178.15234375 C-240.11125223 180.10185564 -240.05744821 182.05101626 -240 184 C-232.97300734 178.19509302 -226.0548183 171.96983861 -220.375 164.8125 C-218.45482389 162.53860724 -216.68053297 160.78777045 -214.4375 158.875 C-210.63626699 155.62826547 -207.05167187 152.20200625 -203.5 148.6875 C-202.68873657 147.89545166 -202.68873657 147.89545166 -201.86108398 147.08740234 C-200.5339856 145.76393399 -199.26179359 144.38586996 -198 143 C-198 142.34 -198 141.68 -198 141 C-197.4225 140.7525 -196.845 140.505 -196.25 140.25 C-193.67060021 138.81700012 -191.93878408 137.21575324 -190 135 C-190 134.34 -190 133.68 -190 133 C-189.41516846 132.74186523 -188.83033691 132.48373047 -188.2277832 132.21777344 C-185.81965351 130.90141717 -184.26568921 129.4790273 -182.35546875 127.515625 C-181.67806641 126.82726562 -181.00066406 126.13890625 -180.30273438 125.4296875 C-179.60470703 124.71039063 -178.90667969 123.99109375 -178.1875 123.25 C-173.78229013 118.73310876 -169.38458148 114.32809037 -164.53027344 110.29101562 C-162.1898251 108.31649572 -160.07029025 106.25849845 -158 104 C-158 103.34 -158 102.68 -158 102 C-157.34 102 -156.68 102 -156 102 C-156 101.34 -156 100.68 -156 100 C-155.34 100 -154.68 100 -154 100 C-154 99.34 -154 98.68 -154 98 C-153.34 98 -152.68 98 -152 98 C-152 97.34 -152 96.68 -152 96 C-151.46890625 95.79375 -150.9378125 95.5875 -150.390625 95.375 C-146.99226564 93.42038808 -144.48944072 90.77876283 -141.75 88 C-141.19570313 87.4534375 -140.64140625 86.906875 -140.0703125 86.34375 C-137.00784225 83.67399232 -137.00784225 83.67399232 -136 80 C-135.44828125 79.77570313 -134.8965625 79.55140625 -134.328125 79.3203125 C-131.28788256 77.59614817 -129.18574327 75.37484178 -126.75 72.875 C-125.41195312 71.50988281 -125.41195312 71.50988281 -124.046875 70.1171875 C-123.37140625 69.41851562 -122.6959375 68.71984375 -122 68 C-123.28062485 66.2925002 -124.61767557 64.62626404 -126 63 C-128.10416771 62.78415698 -128.10416771 62.78415698 -129.63769245 64.39159679 Z M-120 70 C-121.7074998 71.28062485 -123.37373596 72.61767557 -125 74 C-125 74.66 -125 75.32 -125 76 C-125.99 76.33 -126.98 76.66 -128 77 C-126.83593677 78.16406323 -125.67129061 79.32754865 -124.50390625 80.48828125 C-123.4596661 81.53794602 -122.42652024 82.59871848 -121.40234375 83.66796875 C-119.97138652 85.14814809 -118.48847779 86.57767678 -117 88 C-116.34 88 -115.68 88 -115 88 C-114.67 88.99 -114.34 89.98 -114 91 C-112.42177508 92.59744378 -112.42177508 92.59744378 -110.4609375 94.16015625 C-105.13651648 98.6755789 -100.33209363 103.64934096 -95.47265625 108.65429688 C-94.45365234 109.68973633 -94.45365234 109.68973633 -93.4140625 110.74609375 C-92.8051416 111.37185303 -92.1962207 111.9976123 -91.56884766 112.64233398 C-90.09373427 114.21812644 -90.09373427 114.21812644 -88 114 C-87.74992187 114.58523437 -87.49984375 115.17046875 -87.2421875 115.7734375 C-85.83523859 118.29532706 -84.31287196 119.75086062 -82.125 121.625 C-81.44695312 122.21539062 -80.76890625 122.80578125 -80.0703125 123.4140625 C-78.06587425 125.0548849 -78.06587425 125.0548849 -75.80859375 126.0859375 C-73.43978249 127.28313369 -73.10417902 128.64441809 -72 131 C-71.01 131.66 -70.02 132.32 -69 133 C-68.00723954 127.60115626 -67.22862551 122.03101857 -70.09313965 117.1295166 C-73.69067344 112.4824288 -78.05157177 108.58020038 -82.375 104.625 C-83.66193583 103.39122727 -84.94582395 102.15426722 -86.2265625 100.9140625 C-91.4812689 94.9975059 -91.4812689 94.9975059 -98 92 C-98.226875 91.443125 -98.45375 90.88625 -98.6875 90.3125 C-100.37550036 87.33840412 -102.46676517 85.27991135 -105 83 C-105.66 83 -106.32 83 -107 83 C-107 82.34 -107 81.68 -107 81 C-108.61507363 79.32717819 -108.61507363 79.32717819 -110.6875 77.625 C-111.41324219 77.00753906 -112.13898438 76.39007813 -112.88671875 75.75390625 C-115.23449112 73.80538537 -117.59564775 71.8784002 -120 70 Z M-62 127 C-63.12602175 135.44624782 -63.12602175 135.44624782 -60.44140625 143.04296875 C-58.32559947 144.57361224 -58.32559947 144.57361224 -55 146 C-53.99875992 141.86988467 -53.41654299 138.23006335 -54 134 C-56.04487747 131.31707892 -58.35343022 129.08806105 -61 127 C-61.33 127 -61.66 127 -62 127 Z M-46 143 C-48.20287457 145.20287457 -47.62518726 149.13421939 -47.6328125 152.0546875 C-46.48745581 157.38554519 -42.30400825 160.01964508 -38 163 C-38.66 164.32 -39.32 165.64 -40 167 C-41.65 167 -43.3 167 -45 167 C-45.33 166.01 -45.66 165.02 -46 164 C-46.94205985 166.82617956 -47.09846177 168.38050418 -47.02172852 171.2878418 C-47.00130493 172.16049683 -46.98088135 173.03315186 -46.95983887 173.93225098 C-46.9331311 174.84535034 -46.90642334 175.75844971 -46.87890625 176.69921875 C-46.85824097 177.54150024 -46.83757568 178.38378174 -46.81628418 179.25158691 C-46.73753821 182.39704314 -46.64945831 185.5422601 -46.5625 188.6875 C-46.376875 195.720625 -46.19125 202.75375 -46 210 C-31.48 210 -16.96 210 -2 210 C-2 209.01 -2 208.02 -2 207 C-1.34 207 -0.68 207 0 207 C0 200.07 0 193.14 0 186 C-1.32 185.34 -2.64 184.68 -4 184 C-5.44661595 182.71991374 -6.84310289 181.38222209 -8.2019043 180.00927734 C-9.01922531 179.18857758 -9.83654633 178.36787781 -10.67863464 177.52230835 C-11.5516774 176.63580597 -12.42472015 175.74930359 -13.32421875 174.8359375 C-14.22622513 173.92872955 -15.12823151 173.02152161 -16.05757141 172.08682251 C-18.44938918 169.68020887 -20.8370554 167.26963594 -23.22241211 164.85662842 C-26.59370366 161.44727571 -29.97027428 158.04317867 -33.3495636 154.64175415 C-35.14851383 152.83048269 -36.94478554 151.01654651 -38.73820496 149.19979858 C-39.54606949 148.38540314 -40.35393402 147.57100769 -41.1862793 146.73193359 C-41.90035446 146.00960541 -42.61442963 145.28727722 -43.35014343 144.5430603 C-44.74522564 142.8861544 -44.74522564 142.8861544 -46 143 Z M-62 150 C-62 169.8 -62 189.6 -62 210 C-59.03 210 -56.06 210 -53 210 C-53.01627587 202.54306369 -53.07106175 195.08712179 -53.15258789 187.63061523 C-53.17578018 185.09422249 -53.19016645 182.55773328 -53.19555664 180.02124023 C-53.20483658 176.37422476 -53.24581053 172.72872936 -53.29296875 169.08203125 C-53.2890361 167.94852737 -53.28510345 166.8150235 -53.28105164 165.64717102 C-53.23699846 159.13497134 -53.23699846 159.13497134 -56.41918945 153.74487305 C-58.75692403 151.81330138 -58.75692403 151.81330138 -61 152 C-61.33 151.34 -61.66 150.68 -62 150 Z M1 209 C1.33 209.99 1.66 210.98 2 212 C2.66 212 3.32 212 4 212 C4 211.01 4 210.02 4 209 C3.01 209 2.02 209 1 209 Z " fill="#FCFCFC" transform="translate(510,1)"/>
<path d="M0 0 C1.65 0 3.3 0 5 0 C5.66 2.31 6.32 4.62 7 7 C16.57 7 26.14 7 36 7 C36.33 5.35 36.66 3.7 37 2 C38.98 2 40.96 2 43 2 C43.495 4.475 43.495 4.475 44 7 C45.65 7 47.3 7 49 7 C49.04241723 9.33294775 49.04092937 11.66702567 49 14 C48 15 48 15 45.4375 15.0625 C44.633125 15.041875 43.82875 15.02125 43 15 C43.03029297 15.55872803 43.06058594 16.11745605 43.09179688 16.69311523 C43.23033486 19.27445091 43.3651846 21.85596733 43.5 24.4375 C43.54769531 25.31599609 43.59539062 26.19449219 43.64453125 27.09960938 C43.93601938 32.74198669 44.04598086 38.35010203 44 44 C45.65 44 47.3 44 49 44 C49 45.98 49 47.96 49 50 C47.02 50 45.04 50 43 50 C43 54.95 43 59.9 43 65 C41.02 65 39.04 65 37 65 C37 60.05 37 55.1 37 50 C21.655 50.495 21.655 50.495 6 51 C6 52.65 6 54.3 6 56 C5 57 5 57 2.4375 57.0625 C1.633125 57.041875 0.82875 57.02125 0 57 C0 54.69 0 52.38 0 50 C-2.31 50 -4.62 50 -7 50 C-7 48.02 -7 46.04 -7 44 C-5.02 44 -3.04 44 -1 44 C-0.67 40.37 -0.34 36.74 0 33 C-0.85464844 33.08378906 -1.70929688 33.16757813 -2.58984375 33.25390625 C-4.24693359 33.40666016 -4.24693359 33.40666016 -5.9375 33.5625 C-7.59072266 33.71912109 -7.59072266 33.71912109 -9.27734375 33.87890625 C-10.62505859 33.93884766 -10.62505859 33.93884766 -12 34 C-13 33 -13 33 -13.125 30 C-13 27 -13 27 -12 26 C-9.98035801 25.92755947 -7.95832876 25.91622812 -5.9375 25.9375 C-4.28041016 25.95103516 -4.28041016 25.95103516 -2.58984375 25.96484375 C-1.73519531 25.97644531 -0.88054687 25.98804688 0 26 C-0.33 22.37 -0.66 18.74 -1 15 C-2.65 15 -4.3 15 -6 15 C-7 14 -7 14 -7.0625 10.4375 C-7.041875 9.303125 -7.02125 8.16875 -7 7 C-4.69 7.33 -2.38 7.66 0 8 C0 5.36 0 2.72 0 0 Z M29.33984375 14.21875 C28.34314415 14.25204407 28.34314415 14.25204407 27.3263092 14.28601074 C25.1967009 14.35718479 23.06710041 14.42858997 20.9375 14.5 C19.4967453 14.54819227 18.0559901 14.59636955 16.61523438 14.64453125 C13.07681707 14.76284671 9.53840675 14.88136951 6 15 C6 18.63 6 22.26 6 26 C16.23 26 26.46 26 37 26 C37 22.04 37 18.08 37 14 C34.44756354 14 31.89010144 14.13338573 29.33984375 14.21875 Z M6 33 C6 36.96 6 40.92 6 45 C16.23 45 26.46 45 37 45 C37 41.04 37 37.08 37 33 C26.77 33 16.54 33 6 33 Z " fill="#FDFDFD" transform="translate(362,120)"/>
<path d="M0 0 C45.87 0 91.74 0 139 0 C139.33 0.99 139.66 1.98 140 3 C93.8 3 47.6 3 0 3 C0 2.01 0 1.02 0 0 Z " fill="#F2F3F2" transform="translate(301,210)"/>
<path d="M0 0 C16.34482759 0 16.34482759 0 21 3 C23.30479842 5.75088844 23.93080325 7.44642599 24.375 11 C23.95121319 14.39029448 23.0668449 16.29720282 21 19 C20.34 19 19.68 19 19 19 C20.40688919 25.50226731 20.40688919 25.50226731 24 31 C24 31.66 24 32.32 24 33 C20.52839314 32.71069943 19.27624957 32.30062453 16.875 29.6875 C16.25625 28.800625 15.6375 27.91375 15 27 C14.4225 26.278125 13.845 25.55625 13.25 24.8125 C12 23 12 23 12 21 C9.69 21 7.38 21 5 21 C5 24.96 5 28.92 5 33 C3.35 33 1.7 33 0 33 C0 22.11 0 11.22 0 0 Z M5 4 C5 8.29 5 12.58 5 17 C12.41871538 17.7779368 12.41871538 17.7779368 18.8125 14.875 C20.27520792 12.01799916 20.27520792 12.01799916 19.5625 8.8125 C18.24533833 5.92255104 18.24533833 5.92255104 15.875 4.625 C12.14659627 3.81447745 8.81370973 3.8707217 5 4 Z M16 20 C16.66 20.66 17.32 21.32 18 22 C18 21.34 18 20.68 18 20 C17.34 20 16.68 20 16 20 Z " fill="#FCFCFC" transform="translate(225,257)"/>
<path d="M0 0 C1.98 0.495 1.98 0.495 4 1 C4 5.29 4 9.58 4 14 C9.28 14 14.56 14 20 14 C20 9.71 20 5.42 20 1 C21.32 0.67 22.64 0.34 24 0 C25.12796398 3.60636233 25.11416035 6.97144004 25.09765625 10.734375 C25.09443359 12.02988281 25.09121094 13.32539063 25.08789062 14.66015625 C25.07953598 16.02343817 25.07107104 17.38671942 25.0625 18.75 C25.05748168 20.12890465 25.05291935 21.50781104 25.04882812 22.88671875 C25.03704093 26.25785659 25.02058635 29.62890628 25 33 C23.35 33 21.7 33 20 33 C20 28.05 20 23.1 20 18 C15.05 18.33 10.1 18.66 5 19 C4.67 23.62 4.34 28.24 4 33 C2.35 33 0.7 33 -1 33 C-1.02465392 28.46102295 -1.04283789 23.92208457 -1.05493164 19.38305664 C-1.0599714 17.83780234 -1.0668032 16.29255284 -1.07543945 14.74731445 C-1.08752076 12.53074971 -1.09323173 10.31424782 -1.09765625 8.09765625 C-1.10281754 7.4028566 -1.10797882 6.70805695 -1.11329651 5.99220276 C-1.11349277 4.3277067 -1.06189129 2.66334501 -1 1 C-0.67 0.67 -0.34 0.34 0 0 Z " fill="#FCFCFC" transform="translate(330,257)"/>
<path d="M0 0 C4.39616067 2.19808034 7.27582476 4.91373714 10 9 C10 9.99 10 10.98 10 12 C8.68 12 7.36 12 6 12 C5.79375 11.401875 5.5875 10.80375 5.375 10.1875 C3.41076615 7.06258251 1.42634728 6.29296124 -2 5 C-6.98039064 4.47574835 -10.04916885 4.83933508 -14 8 C-16.7138504 12.40522899 -16.8214007 16.97400361 -16 22 C-13.80977082 24.82424288 -12.16982793 26.41508603 -9 28 C-3.78642583 28.40104417 -0.41051174 27.87196113 4 25 C5.40466953 22.94906855 5.40466953 22.94906855 6 21 C7.32 21 8.64 21 10 21 C9.58443583 25.84824868 7.62551755 27.88036862 4 31 C-0.70597317 33.87977463 -5.64980544 33.62897788 -11 33 C-15.82833008 30.62972887 -19.71159336 27.2210166 -21.75 22.125 C-22.28281541 17.59606901 -22.25369841 13.38794442 -21 9 C-21 8.01 -21 7.02 -21 6 C-18.875 4.5 -18.875 4.5 -16 3 C-15.113125 2.443125 -14.22625 1.88625 -13.3125 1.3125 C-8.78380903 -0.48188699 -4.81080398 -0.70516671 0 0 Z " fill="#FCFCFC" transform="translate(294,257)"/>
<path d="M0 0 C3.65961986 2.070088 5.16732864 4.36388234 6.5625 8.375 C6.5625 9.035 6.5625 9.695 6.5625 10.375 C4.25 10.6875 4.25 10.6875 1.5625 10.375 C0 8 0 8 -1.4375 5.375 C-4.8665052 2.8032461 -8.27580511 3.08798656 -12.4375 3.375 C-15.74425012 3.83738809 -15.74425012 3.83738809 -18.4375 5.375 C-20.6196399 9.64009162 -20.85993076 13.64377544 -20.4375 18.375 C-19.1786842 21.88643355 -18.3950977 23.78980141 -15.1875 25.75 C-10.12220672 26.90120302 -6.76227949 27.09987934 -2.125 24.5625 C0.70819422 22.47619391 0.70819422 22.47619391 2.5625 19.375 C3.8825 19.375 5.2025 19.375 6.5625 19.375 C5.24011712 25.06124639 3.11901636 27.05254016 -1.4375 30.375 C-5.6525656 32.4825328 -10.86000022 31.89011506 -15.4375 31.375 C-19.52219978 29.7240412 -21.7923082 27.24913082 -24.375 23.75 C-26.26039591 17.76109534 -26.75426132 11.19602264 -23.875 5.4375 C-17.64836079 -2.38571337 -9.118134 -3.98918362 0 0 Z " fill="#FDFDFD" transform="translate(528.4375,258.625)"/>
<path d="M0 0 C1.81152344 0.10400391 1.81152344 0.10400391 4 1 C5.55566406 3.72802734 5.55566406 3.72802734 7.015625 7.3359375 C7.27631775 7.97109283 7.5370105 8.60624817 7.80560303 9.26065063 C8.35382627 10.60445106 8.8946914 11.9512734 9.42871094 13.30078125 C10.24650549 15.36617439 11.08587611 17.42167991 11.9296875 19.4765625 C16 29.51360058 16 29.51360058 16 33 C14.35 32.67 12.7 32.34 11 32 C10.34 29.69 9.68 27.38 9 25 C4.05 25.33 -0.9 25.66 -6 26 C-6.99 28.31 -7.98 30.62 -9 33 C-10.65 33 -12.3 33 -14 33 C-11.99017916 26.79330157 -9.51157932 20.82952646 -7 14.8125 C-6.54882812 13.72001953 -6.09765625 12.62753906 -5.6328125 11.50195312 C-5.19710937 10.45587891 -4.76140625 9.40980469 -4.3125 8.33203125 C-3.91675781 7.38046143 -3.52101562 6.4288916 -3.11328125 5.44848633 C-2 3 -2 3 0 0 Z M1 7 C2 9 2 9 2 9 Z M0 10 C-1.485 13.96 -1.485 13.96 -3 18 C-2.34 18.33 -1.68 18.66 -1 19 C-1.99 19.66 -2.98 20.32 -4 21 C-0.37 21 3.26 21 7 21 C6.34 19.02 5.68 17.04 5 15 C4.34 15 3.68 15 3 15 C3.33 14.01 3.66 13.02 4 12 C3.34 11.34 2.68 10.68 2 10 C1.34 10 0.68 10 0 10 Z " fill="#FCFCFC" transform="translate(186,257)"/>
<path d="M0 0 C1.18613892 0.00785522 1.18613892 0.00785522 2.39624023 0.01586914 C3.67724609 0.02070313 3.67724609 0.02070313 4.98413086 0.02563477 C5.88196289 0.03401367 6.77979492 0.04239258 7.70483398 0.05102539 C8.6065332 0.05553711 9.50823242 0.06004883 10.43725586 0.06469727 C12.67234712 0.07652315 14.90730835 0.09300319 17.14233398 0.11352539 C17.14233398 1.43352539 17.14233398 2.75352539 17.14233398 4.11352539 C12.19233398 4.44352539 7.24233398 4.77352539 2.14233398 5.11352539 C2.14233398 7.42352539 2.14233398 9.73352539 2.14233398 12.11352539 C1.81233398 12.77352539 1.48233398 13.43352539 1.14233398 14.11352539 C6.09233398 14.11352539 11.04233398 14.11352539 16.14233398 14.11352539 C16.14233398 15.43352539 16.14233398 16.75352539 16.14233398 18.11352539 C11.19233398 18.11352539 6.24233398 18.11352539 1.14233398 18.11352539 C1.47233398 19.43352539 1.80233398 20.75352539 2.14233398 22.11352539 C2.14233398 24.09352539 2.14233398 26.07352539 2.14233398 28.11352539 C7.42233398 28.44352539 12.70233398 28.77352539 18.14233398 29.11352539 C17.81233398 30.43352539 17.48233398 31.75352539 17.14233398 33.11352539 C10.54233398 33.11352539 3.94233398 33.11352539 -2.85766602 33.11352539 C-2.88057762 28.57448173 -2.90050383 24.03563737 -2.91259766 19.49658203 C-2.91763741 17.95132773 -2.92446921 16.40607823 -2.93310547 14.86083984 C-2.94518678 12.6442751 -2.95089774 10.42777321 -2.95532227 8.21118164 C-2.96048355 7.51638199 -2.96564484 6.82158234 -2.97096252 6.10572815 C-2.97115878 4.44123209 -2.9195573 2.7768704 -2.85766602 1.11352539 C-1.85766602 0.11352539 -1.85766602 0.11352539 0 0 Z " fill="#FBFCFC" transform="translate(461.857666015625,256.886474609375)"/>
<path d="M0 0 C-1.34260917 2.93050271 -2.87148538 5.20913591 -5 7.625 C-5.515625 8.21539062 -6.03125 8.80578125 -6.5625 9.4140625 C-7.67451212 10.64090196 -8.82916568 11.82916568 -10 13 C-10.33 13.66 -10.66 14.32 -11 15 C-6.05 15.99 -6.05 15.99 -1 17 C-1 17.66 -1 18.32 -1 19 C-0.34 19.33 0.32 19.66 1 20 C-0.11799986 21.33920838 -1.24461897 22.67122556 -2.375 24 C-3.00148438 24.7425 -3.62796875 25.485 -4.2734375 26.25 C-5.12808594 27.11625 -5.12808594 27.11625 -6 28 C-6.66 28 -7.32 28 -8 28 C-6.6975667 25.09457188 -5.29113732 23.1907039 -3 21 C-3.86882812 21.01160156 -4.73765625 21.02320312 -5.6328125 21.03515625 C-6.78523438 21.04417969 -7.93765625 21.05320312 -9.125 21.0625 C-10.26195312 21.07410156 -11.39890625 21.08570312 -12.5703125 21.09765625 C-16 21 -16 21 -18.59231567 20.50672913 C-23.05973909 19.84241479 -27.44189596 19.82280941 -31.95263672 19.79467773 C-32.9386235 19.78477814 -33.92461029 19.77487854 -34.94047546 19.76467896 C-38.18685537 19.73318982 -41.4332499 19.7083564 -44.6796875 19.68359375 C-46.93556083 19.66301335 -49.1914304 19.6420166 -51.44729614 19.62062073 C-57.37541653 19.56551223 -63.30357108 19.51605355 -69.23175049 19.46777344 C-75.28473946 19.41747637 -81.33767903 19.36183318 -87.390625 19.30664062 C-99.26037443 19.19919634 -111.13016682 19.09772101 -123 19 C-123 18.67 -123 18.34 -123 18 C-121.74798798 17.98382629 -120.49597595 17.96765259 -119.20602417 17.95098877 C-107.40518912 17.79599813 -95.60481334 17.6205033 -83.80457878 17.42494583 C-77.73797625 17.32506681 -71.67144256 17.23240718 -65.60449219 17.15625 C-59.74918519 17.08248379 -53.89445749 16.98974912 -48.03964615 16.88387299 C-45.80625702 16.84681689 -43.57274378 16.81658908 -41.33916855 16.79331207 C-38.20972159 16.75953064 -35.08159665 16.70145348 -31.95263672 16.63769531 C-31.02978378 16.63337494 -30.10693085 16.62905457 -29.15611267 16.62460327 C-22.4793854 16.45087648 -19.24857811 14.93949726 -14.28076172 10.44433594 C-13.83490723 9.96254883 -13.38905273 9.48076172 -12.9296875 8.984375 C-12.42566406 8.45585938 -11.92164063 7.92734375 -11.40234375 7.3828125 C-10.37266807 6.2820339 -9.34669557 5.17778109 -8.32421875 4.0703125 C-4.42433805 0 -4.42433805 0 0 0 Z " fill="#F5F5F5" transform="translate(403,35)"/>
<path d="M0 0 C0.33 0 0.66 0 1 0 C1.495 4.95 1.495 4.95 2 10 C2.66 8.68 3.32 7.36 4 6 C6.625 5.25 6.625 5.25 9 5 C8.1875 7.9375 8.1875 7.9375 7 11 C6.01 11.33 5.02 11.66 4 12 C1.82328797 15.32908899 1.02493047 19.19311539 0 23 C-2.49064888 23.68707555 -4.37886292 24 -7 24 C-8.19705371 25.40226291 -9.38471932 26.81363747 -10.5234375 28.26367188 C-12.01038166 30.01220806 -13.54533412 31.38214033 -15.3125 32.84375 C-19.26191913 36.2478311 -22.92704747 39.87713178 -26.58203125 43.58984375 C-27.16715988 44.1828981 -27.75228851 44.77595245 -28.35514832 45.38697815 C-30.80107002 47.86928509 -33.24375865 50.35461271 -35.67749023 52.84887695 C-37.47236193 54.68586956 -39.27638043 56.51345411 -41.08203125 58.33984375 C-41.632043 58.90847641 -42.18205475 59.47710907 -42.74873352 60.06297302 C-44.10987688 61.4332547 -45.54961604 62.72455126 -47 64 C-47.99 64 -48.98 64 -50 64 C-49.43831496 60.14813472 -47.75337495 58.37908636 -45.03515625 55.671875 C-44.23529297 54.87265625 -43.43542969 54.0734375 -42.61132812 53.25 C-41.77021484 52.425 -40.92910156 51.6 -40.0625 50.75 C-39.22525391 49.90953125 -38.38800781 49.0690625 -37.52539062 48.203125 C-31.26688058 42 -31.26688058 42 -29 42 C-28.67 41.01 -28.34 40.02 -28 39 C-26.0625 36.8125 -26.0625 36.8125 -24 35 C-23.34 35 -22.68 35 -22 35 C-22 34.34 -22 33.68 -22 33 C-21.34 33 -20.68 33 -20 33 C-20 32.34 -20 31.68 -20 31 C-18.56640625 29.58984375 -18.56640625 29.58984375 -16.5625 27.9375 C-13.33864823 25.17912416 -10.18704444 22.37547457 -7.125 19.4375 C-6.38507813 18.73496094 -5.64515625 18.03242188 -4.8828125 17.30859375 C-1.68233573 13.38435771 -0.82534722 9.07881941 -0.375 4.125 C-0.30023438 3.34382812 -0.22546875 2.56265625 -0.1484375 1.7578125 C-0.09945312 1.17773438 -0.05046875 0.59765625 0 0 Z " fill="#F7F8F8" transform="translate(269,152)"/>
<path d="M0 0 C8.25 0 16.5 0 25 0 C25.33 1.32 25.66 2.64 26 4 C22.37 4 18.74 4 15 4 C15 13.57 15 23.14 15 33 C12.525 33.495 12.525 33.495 10 34 C8.9196739 30.55168638 8.96245059 27.51778656 9.12109375 23.921875 C9.16943359 22.76171875 9.21777344 21.6015625 9.26757812 20.40625 C9.32365234 19.1996875 9.37972656 17.993125 9.4375 16.75 C9.48970703 15.52796875 9.54191406 14.3059375 9.59570312 13.046875 C9.72529214 10.03098519 9.86025576 7.01543354 10 4 C6.7 4 3.4 4 0 4 C0 2.68 0 1.36 0 0 Z " fill="#FCFCFC" transform="translate(410,257)"/>
<path d="M0 0 C8.25 0 16.5 0 25 0 C25 1.32 25 2.64 25 4 C21.7 4.33 18.4 4.66 15 5 C14.67 14.24 14.34 23.48 14 33 C12.35 33 10.7 33 9 33 C9.33 23.43 9.66 13.86 10 4 C6.37 4 2.74 4 -1 4 C-0.67 2.68 -0.34 1.36 0 0 Z " fill="#FDFDFD" transform="translate(557,257)"/>
<path d="M0 0 C1.98 0.495 1.98 0.495 4 1 C4 11.56 4 22.12 4 33 C2.35 33 0.7 33 -1 33 C-0.67 22.11 -0.34 11.22 0 0 Z " fill="#FCFCFC" transform="translate(382,257)"/>
<path d="M0 0 C3.23475448 1.61737724 4.70572021 2.47629223 7 5 C7.33 3.35 7.66 1.7 8 0 C9.65 0 11.3 0 13 0 C13 4.29 13 8.58 13 13 C12.01 13 11.02 13 10 13 C9.67 11.35 9.34 9.7 9 8 C8.67 8.66 8.34 9.32 8 10 C6.68 10 5.36 10 4 10 C3.67 10.99 3.34 11.98 3 13 C2.01 13 1.02 13 0 13 C0 8.71 0 4.42 0 0 Z M3 6 C4 8 4 8 4 8 Z " fill="#F4F9F7" transform="translate(218,299)"/>
<path d="M0 0 C0.33 1.32 0.66 2.64 1 4 C0.01 4.495 0.01 4.495 -1 5 C-0.34 5.66 0.32 6.32 1 7 C1 8.32 1 9.64 1 11 C-1.86120256 12.43060128 -3.84010585 12.38692581 -7 12 C-9.68558741 8.73892958 -10.78733046 5.01113772 -12 1 C-7.53763531 -0.80619523 -4.68965706 -1.11658501 0 0 Z M-10 2 C-9 4 -9 4 -9 4 Z M-6 2 C-6 2.66 -6 3.32 -6 4 C-5.34 3.67 -4.68 3.34 -4 3 C-4.66 2.67 -5.32 2.34 -6 2 Z " fill="#F2F8F7" transform="translate(325,300)"/>
<path d="M0 0 C1.3921875 0.3403125 1.3921875 0.3403125 2.8125 0.6875 C3.67982499 4.80729372 3.99095639 7.62837245 2.8125 11.6875 C1.8125 12.6875 1.8125 12.6875 -1.0625 12.8125 C-4.1875 12.6875 -4.1875 12.6875 -7.1875 11.6875 C-7.5175 8.7175 -7.8475 5.7475 -8.1875 2.6875 C-7.5275 2.6875 -6.8675 2.6875 -6.1875 2.6875 C-5.775 2.171875 -5.3625 1.65625 -4.9375 1.125 C-3.1875 -0.3125 -3.1875 -0.3125 0 0 Z M-3.1875 2.6875 C-3.1875 3.3475 -3.1875 4.0075 -3.1875 4.6875 C-0.7125 5.1825 -0.7125 5.1825 1.8125 5.6875 C1.4825 4.6975 1.1525 3.7075 0.8125 2.6875 C-0.5075 2.6875 -1.8275 2.6875 -3.1875 2.6875 Z " fill="#F4F8F7" transform="translate(410.1875,299.3125)"/>
<path d="M0 0 C2.59064229 1.6654129 2.99391515 2.98093412 3.9375 5.9375 C4 9 4 9 2.5 11.375 C-0.79646706 13.51770359 -3.14646454 13.2964258 -7 13 C-7 12.34 -7 11.68 -7 11 C-7.66 10.67 -8.32 10.34 -9 10 C-8.39779006 3.61657459 -8.39779006 3.61657459 -6.75 1.0625 C-4.31689101 -0.41474475 -2.79657176 -0.41948576 0 0 Z M-5 3 C-6.28322547 4.0595877 -6.28322547 4.0595877 -6.125 6.5 C-6.28322547 8.9404123 -6.28322547 8.9404123 -5 10 C-3.33382885 10.04063832 -1.66611905 10.042721 0 10 C0.33 9.34 0.66 8.68 1 8 C-0.65 8 -2.3 8 -4 8 C-4 7.34 -4 6.68 -4 6 C-3.34 6 -2.68 6 -2 6 C-2.33 5.01 -2.66 4.02 -3 3 C-3.66 3 -4.32 3 -5 3 Z M-2 3 C-1.67 3.66 -1.34 4.32 -1 5 C-0.34 4.67 0.32 4.34 1 4 C0.01 3.67 -0.98 3.34 -2 3 Z " fill="#F8F9F9" transform="translate(440,299)"/>
<path d="M0 0 C1.9375 1.6875 1.9375 1.6875 3 4 C2.875 7.125 2.875 7.125 2 10 C-1.49565336 12.33043558 -2.8865729 12.58763244 -7 12 C-9.4375 9.8125 -9.4375 9.8125 -11 7 C-11 3.77662802 -10.46243134 2.5138126 -8.3125 0.125 C-5.10170492 -1.43700842 -3.36486763 -1.07389392 0 0 Z M-7 2 C-8.04449911 5.13349732 -7.93423645 5.98968256 -7 9 C-5.02 9 -3.04 9 -1 9 C0.00217064 5.41672247 0.00217064 5.41672247 -1 2 C-2.98 2 -4.96 2 -7 2 Z " fill="#F3F6F5" transform="translate(568,300)"/>
<path d="M0 0 C0.763125 0.20625 1.52625 0.4125 2.3125 0.625 C2.875 2.5625 2.875 2.5625 3.3125 4.625 C2.9825 4.955 2.6525 5.285 2.3125 5.625 C2.9725 6.945 3.6325 8.265 4.3125 9.625 C3.3225 11.11 3.3225 11.11 2.3125 12.625 C-0.6875 12.9375 -0.6875 12.9375 -3.6875 12.625 C-4.3475 11.965 -5.0075 11.305 -5.6875 10.625 C-5.36501743 9.28900079 -5.02977417 7.95606622 -4.6875 6.625 C-5.07317131 3.94350007 -5.07317131 3.94350007 -5.6875 1.625 C-2.6875 -0.375 -2.6875 -0.375 0 0 Z M-2.6875 2.625 C-2.6875 3.285 -2.6875 3.945 -2.6875 4.625 C-2.0275 4.295 -1.3675 3.965 -0.6875 3.625 C-1.3475 3.295 -2.0075 2.965 -2.6875 2.625 Z M-2.6875 7.625 C-1.6875 9.625 -1.6875 9.625 -1.6875 9.625 Z " fill="#F9FAF9" transform="translate(484.6875,299.375)"/>
<path d="M0 0 C0.66 0.99 1.32 1.98 2 3 C2.99387334 4.33790641 3.9926892 5.67218122 5 7 C5.33 5.02 5.66 3.04 6 1 C6.66 1 7.32 1 8 1 C8 5.29 8 9.58 8 14 C4 12 4 12 2 9 C1.67 10.65 1.34 12.3 1 14 C0.01 14 -0.98 14 -2 14 C-2 9.71 -2 5.42 -2 1 C-1.34 0.67 -0.68 0.34 0 0 Z " fill="#F8FAF9" transform="translate(453,298)"/>
<path d="M0 0 C6 0 6 0 8.9375 1.5625 C11 4 11 4 11 7.625 C10 11 10 11 7 13 C4.66800612 13.07905064 2.33167378 13.08798769 0 13 C0 8.71 0 4.42 0 0 Z M2 3 C2 5.31 2 7.62 2 10 C3.66611905 10.042721 5.33382885 10.04063832 7 10 C8.29633621 8.93354885 8.29633621 8.93354885 8.0625 6.4375 C8.041875 5.633125 8.02125 4.82875 8 4 C5.92446352 3.4465236 4.15634036 3 2 3 Z " fill="#EFF3F0" transform="translate(371,299)"/>
<path d="M0 0 C1.134375 0.020625 2.26875 0.04125 3.4375 0.0625 C3.4375 1.0525 3.4375 2.0425 3.4375 3.0625 C1.7875 3.3925 0.1375 3.7225 -1.5625 4.0625 C0.0875 4.3925 1.7375 4.7225 3.4375 5.0625 C3.7675 6.0525 4.0975 7.0425 4.4375 8.0625 C1.94657189 9.30796405 1.02669267 8.8392578 -1.5625 8.0625 C-1.5625 8.7225 -1.5625 9.3825 -1.5625 10.0625 C0.0875 10.3925 1.7375 10.7225 3.4375 11.0625 C3.4375 11.7225 3.4375 12.3825 3.4375 13.0625 C0.7975 13.0625 -1.8425 13.0625 -4.5625 13.0625 C-4.58936553 11.08340602 -4.60883375 9.10421029 -4.625 7.125 C-4.63660156 6.02285156 -4.64820313 4.92070312 -4.66015625 3.78515625 C-4.51237367 -0.33502211 -4.25789233 0.07469987 0 0 Z " fill="#F0F6F5" transform="translate(393.5625,298.9375)"/>
<path d="M0 0 C6 0 6 0 7.9375 1.125 C9.5172952 3.91287388 8.62577015 5.93372628 8 9 C8.3577614 11.27650745 8.3577614 11.27650745 9 13 C6 13 6 13 3.8125 11 C3.214375 10.34 2.61625 9.68 2 9 C2 10.32 2 11.64 2 13 C1.34 13 0.68 13 0 13 C0 8.71 0 4.42 0 0 Z M2 3 C2 3.99 2 4.98 2 6 C3.32 6 4.64 6 6 6 C6 5.01 6 4.02 6 3 C4.68 3 3.36 3 2 3 Z " fill="#F3F5F2" transform="translate(184,299)"/>
<path d="M0 0 C0.66 0 1.32 0 2 0 C2 1.65 2 3.3 2 5 C3.65 5 5.3 5 7 5 C7.33 3.35 7.66 1.7 8 0 C8.66 0.33 9.32 0.66 10 1 C10 4.96 10 8.92 10 13 C9.01 13 8.02 13 7 13 C7 11.35 7 9.7 7 8 C5.35 8 3.7 8 2 8 C2 9.65 2 11.3 2 13 C1.01 13 0.02 13 -1 13 C-0.67 8.71 -0.34 4.42 0 0 Z " fill="#F3F8F6" transform="translate(256,299)"/>
<path d="M0 0 C6 0 6 0 8.3125 1.25 C10.26838452 3.27832468 10.9170114 4.17838748 11 7 C9.85213059 9.24356294 8.7904233 11.2095767 7 13 C4.66702567 13.04092937 2.33294775 13.04241723 0 13 C0 8.71 0 4.42 0 0 Z M2 3 C2 5.31 2 7.62 2 10 C3.65 10 5.3 10 7 10 C7.67958603 7.60280568 7.67958603 7.60280568 8 5 C7.34 4.34 6.68 3.68 6 3 C4.68 3 3.36 3 2 3 Z " fill="#F0F3F2" transform="translate(530,299)"/>
<path d="M0 0 C0.99 0.33 1.98 0.66 3 1 C2.67 2.32 2.34 3.64 2 5 C5.11332248 4.33131686 5.11332248 4.33131686 6.1875 1.9375 C6.455625 1.298125 6.72375 0.65875 7 0 C7.66 0 8.32 0 9 0 C8.67 1.65 8.34 3.3 8 5 C8.66 5.33 9.32 5.66 10 6 C9.34 6.66 8.68 7.32 8 8 C8.66 9.65 9.32 11.3 10 13 C8.35 12.67 6.7 12.34 5 12 C5 10.68 5 9.36 5 8 C4.01 8 3.02 8 2 8 C2.33 9.65 2.66 11.3 3 13 C1.68 12.67 0.36 12.34 -1 12 C-0.67 8.04 -0.34 4.08 0 0 Z " fill="#F8F9F8" transform="translate(344,299)"/>
<path d="M0 0 C1.32 0 2.64 0 4 0 C4.67305018 1.60149886 5.33822227 3.20631029 6 4.8125 C6.37125 5.70582031 6.7425 6.59914063 7.125 7.51953125 C8 10 8 10 8 13 C7.01 13 6.02 13 5 13 C5 12.01 5 11.02 5 10 C3.35 10.33 1.7 10.66 0 11 C0 11.66 0 12.32 0 13 C-1.32 13 -2.64 13 -4 13 C-3.79503906 12.39671875 -3.59007812 11.7934375 -3.37890625 11.171875 C-2.97478516 9.97304688 -2.97478516 9.97304688 -2.5625 8.75 C-2.29566406 7.96109375 -2.02882812 7.1721875 -1.75390625 6.359375 C-1.08045292 4.25178012 -0.50849405 2.15246027 0 0 Z M2 5 C1.67 5.99 1.34 6.98 1 8 C1.99 7.67 2.98 7.34 4 7 C3.34 6.34 2.68 5.68 2 5 Z " fill="#F5F8F8" transform="translate(241,299)"/>
<path d="M0 0 C3 1 3 1 4.16796875 2.9609375 C4.50441406 3.75757813 4.84085937 4.55421875 5.1875 5.375 C5.53167969 6.16648437 5.87585938 6.95796875 6.23046875 7.7734375 C7 10 7 10 7 13 C6.01 13 5.02 13 4 13 C4 12.01 4 11.02 4 10 C2.35 10 0.7 10 -1 10 C-1.33 10.99 -1.66 11.98 -2 13 C-2.66 13 -3.32 13 -4 13 C-4.33 11.68 -4.66 10.36 -5 9 C-4.34 9 -3.68 9 -3 9 C-2.01 6.03 -1.02 3.06 0 0 Z M1 5 C0.67 5.99 0.34 6.98 0 8 C0.66 8 1.32 8 2 8 C1.67 7.01 1.34 6.02 1 5 Z " fill="#F1F6F4" transform="translate(303,299)"/>
<path d="M0 0 C0.99 0 1.98 0 3 0 C3 2.97 3 5.94 3 9 C4.32 9.33 5.64 9.66 7 10 C7 7.03 7 4.06 7 1 C7.99 1 8.98 1 10 1 C10.08131463 2.43655854 10.13933559 3.8744483 10.1875 5.3125 C10.22230469 6.11300781 10.25710938 6.91351563 10.29296875 7.73828125 C10 10 10 10 8.64453125 11.76171875 C7 13 7 13 4.5 13.5 C2 13 2 13 0.125 11 C-1.41626126 6.88996997 -0.7996628 4.28910049 0 0 Z " fill="#F5F8F7" transform="translate(512,299)"/>
<path d="M0 0 C0.99 0.33 1.98 0.66 3 1 C3 3.97 3 6.94 3 10 C4.32 9.67 5.64 9.34 7 9 C7.33 6.03 7.66 3.06 8 0 C8.99 0.33 9.98 0.66 11 1 C10.88601335 2.62580966 10.75844341 4.25067157 10.625 5.875 C10.55539063 6.77992188 10.48578125 7.68484375 10.4140625 8.6171875 C10 11 10 11 8 13 C5.27130593 12.96712417 2.7033382 12.43602229 0 12 C0 8.04 0 4.08 0 0 Z " fill="#F5F7F6" transform="translate(200,299)"/>
<path d="M0 0 C0.99 0 1.98 0 3 0 C3 7.26 3 14.52 3 22 C0.69 22.66 -1.62 23.32 -4 24 C-3.67 23.34 -3.34 22.68 -3 22 C-2.01 22 -1.02 22 0 22 C0 14.74 0 7.48 0 0 Z " fill="#FDFDFC" transform="translate(267,27)"/>
<path d="M0 0 C3.3 0 6.6 0 10 0 C10.33 1.32 10.66 2.64 11 4 C8 4 8 4 6 3 C6 6.3 6 9.6 6 13 C5.01 12.67 4.02 12.34 3 12 C3 9.36 3 6.72 3 4 C1.68 3.67 0.36 3.34 -1 3 C-0.67 2.01 -0.34 1.02 0 0 Z " fill="#F8FAF9" transform="translate(283,299)"/>
<path d="M0 0 C0.391875 0.66 0.78375 1.32 1.1875 2 C2.85416667 4.29166667 2.85416667 4.29166667 5.6875 4.25 C6.8321875 4.12625 6.8321875 4.12625 8 4 C8 4.99 8 5.98 8 7 C0.74 7 -6.52 7 -14 7 C-14.33 6.34 -14.66 5.68 -15 5 C-9.43842552 4.08542997 -5.324335 3.67913603 0 6 C0 4.02 0 2.04 0 0 Z " fill="#F1F2F2" transform="translate(462,206)"/>
<path d="M0 0 C0.66 1.32 1.32 2.64 2 4 C0.57189185 5.50894446 -0.86781019 7.00692345 -2.3125 8.5 C-3.11300781 9.3353125 -3.91351563 10.170625 -4.73828125 11.03125 C-7 13 -7 13 -10 13 C-9.48223379 8.89552608 -7.35372556 7.04300477 -4.4375 4.25 C-3.61121094 3.45078125 -2.78492188 2.6515625 -1.93359375 1.828125 C-1.29550781 1.22484375 -0.65742188 0.6215625 0 0 Z " fill="#FBFBFB" transform="translate(229,203)"/>
<path d="M0 0 C0.99 0.33 1.98 0.66 3 1 C-4.59626094 11.31563246 -4.59626094 11.31563246 -10 15 C-10.99 14.67 -11.98 14.34 -13 14 C-12.34 14 -11.68 14 -11 14 C-10.76539063 13.27425781 -10.53078125 12.54851562 -10.2890625 11.80078125 C-8.78466556 8.53213699 -6.96659552 6.66802714 -4.375 4.1875 C-3.55773437 3.39730469 -2.74046875 2.60710937 -1.8984375 1.79296875 C-0.95871094 0.90544922 -0.95871094 0.90544922 0 0 Z " fill="#EFEFEF" transform="translate(261,172)"/>
<path d="M0 0 C3.3 0 6.6 0 10 0 C10 0.99 10 1.98 10 3 C8.68 3 7.36 3 6 3 C6 6.3 6 9.6 6 13 C5.34 13 4.68 13 4 13 C4 9.7 4 6.4 4 3 C2.35 3 0.7 3 -1 3 C-0.67 2.01 -0.34 1.02 0 0 Z " fill="#F5F7F7" transform="translate(495,299)"/>
<path d="M0 0 C0 1.98 0 3.96 0 6 C-0.99 5.67 -1.98 5.34 -3 5 C-3.598125 5.66 -4.19625 6.32 -4.8125 7 C-7 9 -7 9 -10 9 C-10 6 -10 6 -8.57421875 4.39453125 C-7.95160156 3.87246094 -7.32898438 3.35039062 -6.6875 2.8125 C-6.07261719 2.28269531 -5.45773437 1.75289062 -4.82421875 1.20703125 C-3 0 -3 0 0 0 Z " fill="#F5F7F6" transform="translate(266,192)"/>
<path d="M0 0 C2.475 0.99 2.475 0.99 5 2 C4.67 2.66 4.34 3.32 4 4 C3.34 3.67 2.68 3.34 2 3 C2 5.31 2 7.62 2 10 C2.639375 10.12375 3.27875 10.2475 3.9375 10.375 C4.618125 10.58125 5.29875 10.7875 6 11 C6.33 11.66 6.66 12.32 7 13 C4.69 13 2.38 13 0 13 C0 8.71 0 4.42 0 0 Z " fill="#F9FAF9" transform="translate(371,299)"/>
<path d="M0 0 C0.99 0 1.98 0 3 0 C4.82421875 1.93359375 4.82421875 1.93359375 6.6875 4.4375 C7.31011719 5.26121094 7.93273437 6.08492188 8.57421875 6.93359375 C10 9 10 9 10 10 C6.65747276 10.07427838 4.1964086 10.06546953 1 9 C0.67 6.03 0.34 3.06 0 0 Z " fill="#F8FCFB" transform="translate(402,302)"/>
<path d="M0 0 C0.66 0.66 1.32 1.32 2 2 C1.69496569 4.00451121 1.35919321 6.00448218 1 8 C1.3577614 10.27650745 1.3577614 10.27650745 2 12 C1.01 12 0.02 12 -1 12 C-5 7.65714286 -5 7.65714286 -5 5 C-3.68 5 -2.36 5 -1 5 C-0.67 3.35 -0.34 1.7 0 0 Z " fill="#FAFBFA" transform="translate(191,300)"/>
<path d="M0 0 C1.32 0 2.64 0 4 0 C4 4.29 4 8.58 4 13 C3.01 13 2.02 13 1 13 C0.67 8.71 0.34 4.42 0 0 Z " fill="#F5FAF8" transform="translate(332,299)"/>
<path d="M0 0 C0.05394705 2.60444348 0.09364469 5.20776998 0.125 7.8125 C0.14175781 8.55048828 0.15851562 9.28847656 0.17578125 10.04882812 C0.21074628 13.91246426 0.19397555 15.70903668 -2 19 C-2.33 13.06 -2.66 7.12 -3 1 C-1 0 -1 0 0 0 Z " fill="#F0F3F1" transform="translate(513,184)"/>
<path d="M0 0 C1.65 0 3.3 0 5 0 C5 0.66 5 1.32 5 2 C5.66 2.33 6.32 2.66 7 3 C5.88200014 4.33920838 4.75538103 5.67122556 3.625 7 C2.68527344 8.11375 2.68527344 8.11375 1.7265625 9.25 C1.15679687 9.8275 0.58703125 10.405 0 11 C-0.66 11 -1.32 11 -2 11 C-0.70700306 8.11562221 0.65941363 6.12780579 3 4 C2.01 3.34 1.02 2.68 0 2 C0 1.34 0 0.68 0 0 Z " fill="#F0F2F2" transform="translate(397,52)"/>
<path d="M0 0 C0.99 0.33 1.98 0.66 3 1 C3 4.63 3 8.26 3 12 C2.01 12 1.02 12 0 12 C0 8.04 0 4.08 0 0 Z " fill="#FBFBFB" transform="translate(421,300)"/>
<path d="M0 0 C5.75 0.75 5.75 0.75 8 3 C7.625 5.125 7.625 5.125 7 7 C5.02 7 3.04 7 1 7 C2.32 6.67 3.64 6.34 5 6 C3.35 4.02 1.7 2.04 0 0 Z " fill="#EBF3F1" transform="translate(406,304)"/>
<path d="M0 0 C5.75 0.75 5.75 0.75 8 3 C8 3.99 8 4.98 8 6 C6.68 6.33 5.36 6.66 4 7 C4 6.01 4 5.02 4 4 C2.68 3.34 1.36 2.68 0 2 C0 1.34 0 0.68 0 0 Z " fill="#EDF2F0" transform="translate(318,304)"/>
<path d="M0 0 C0.33 0 0.66 0 1 0 C1 5.61 1 11.22 1 17 C-0.32 17 -1.64 17 -3 17 C-2.67 15.35 -2.34 13.7 -2 12 C-1.67 12 -1.34 12 -1 12 C-0.67 8.04 -0.34 4.08 0 0 Z " fill="#F5F5F5" transform="translate(353,273)"/>
<path d="M0 0 C-0.75 2.4375 -0.75 2.4375 -2 5 C-4.0625 5.625 -4.0625 5.625 -6 6 C-6.33 6.99 -6.66 7.98 -7 9 C-7.66 8.34 -8.32 7.68 -9 7 C-8.34 7 -7.68 7 -7 7 C-6.731875 6.030625 -6.46375 5.06125 -6.1875 4.0625 C-5.5996875 2.5465625 -5.5996875 2.5465625 -5 1 C-2 0 -2 0 0 0 Z " fill="#F1F2F2" transform="translate(278,157)"/>
<path d="M0 0 C1.32 0 2.64 0 4 0 C4.625 1.8125 4.625 1.8125 5 4 C4.01 5.485 4.01 5.485 3 7 C2.34 7 1.68 7 1 7 C0.34 5.02 -0.32 3.04 -1 1 C-0.67 0.67 -0.34 0.34 0 0 Z M1 2 C2 4 2 4 2 4 Z " fill="#FAFEFD" transform="translate(314,300)"/>
<path d="M0 0 C1.91015625 0.23046875 1.91015625 0.23046875 3.91015625 2.23046875 C-1.46290074 3.90404388 -1.46290074 3.90404388 -4.08984375 4.23046875 C-6.08984375 2.85546875 -6.08984375 2.85546875 -7.08984375 1.23046875 C-5.19495423 -0.66442077 -2.51845229 0.05027763 0 0 Z " fill="#F2F3F3" transform="translate(391.08984375,51.76953125)"/>
<path d="M0 0 C0.66 0 1.32 0 2 0 C2.042721 1.66611905 2.04063832 3.33382885 2 5 C1 6 1 6 -1.5625 6.0625 C-2.7690625 6.0315625 -2.7690625 6.0315625 -4 6 C-3.67 5.01 -3.34 4.02 -3 3 C-2.34 3 -1.68 3 -1 3 C-0.67 2.01 -0.34 1.02 0 0 Z " fill="#F6F7F7" transform="translate(366,171)"/>
<path d="M0 0 C0.33 0 0.66 0 1 0 C1.33 3.63 1.66 7.26 2 11 C1.01 10.67 0.02 10.34 -1 10 C-1.125 2.25 -1.125 2.25 0 0 Z " fill="#F4F5F5" transform="translate(549,300)"/>
<path d="M0 0 C0.33 0 0.66 0 1 0 C1 2.97 1 5.94 1 9 C0.67 9 0.34 9 0 9 C0 6.03 0 3.06 0 0 Z " fill="#FFFFFF" transform="translate(342,302)"/>
<path d="M0 0 C0.99 0.33 1.98 0.66 3 1 C1.68 1.33 0.36 1.66 -1 2 C-0.67 1.34 -0.34 0.68 0 0 Z " fill="#FFFFFF" transform="translate(329,300)"/>
<path d="M0 0 C0.33 1.32 0.66 2.64 1 4 C0.34 3.34 -0.32 2.68 -1 2 C-0.67 1.34 -0.34 0.68 0 0 Z " fill="#FFFFFF" transform="translate(419,300)"/>
<path d="M0 0 C0.33 0.99 0.66 1.98 1 3 C0.34 2.67 -0.32 2.34 -1 2 C-0.67 1.34 -0.34 0.68 0 0 Z " fill="#FFFFFF" transform="translate(348,300)"/>
<path d="M0 0 C0.66 0.66 1.32 1.32 2 2 C1.34 2 0.68 2 0 2 C0 1.34 0 0.68 0 0 Z " fill="#FFFFFF" transform="translate(347,308)"/>
<path d="M0 0 C3 1 3 1 3 1 Z " fill="#FFFFFF" transform="translate(295,301)"/>
<path d="" fill="#FFFFFF" transform="translate(0,0)"/>
<path d="" fill="#FFFFFF" transform="translate(0,0)"/>
<path d="" fill="#FFFFFF" transform="translate(0,0)"/>
<path d="M0 0 C2 1 2 1 2 1 Z " fill="#FFFFFF" transform="translate(515,307)"/>
<path d="" fill="#FFFFFF" transform="translate(0,0)"/>
<path d="" fill="#FFFFFF" transform="translate(0,0)"/>
<path d="M0 0 C2 1 2 1 2 1 Z " fill="#FFFFFF" transform="translate(417,304)"/>
<path d="" fill="#FFFFFF" transform="translate(0,0)"/>
<path d="" fill="#FFFFFF" transform="translate(0,0)"/>
<path d="" fill="#FFFFFF" transform="translate(0,0)"/>
<path d="M0 0 C2 1 2 1 2 1 Z " fill="#FFFFFF" transform="translate(187,303)"/>
<path d="" fill="#FFFFFF" transform="translate(0,0)"/>
<path d="" fill="#FFFFFF" transform="translate(0,0)"/>
<path d="" fill="#FFFFFF" transform="translate(0,0)"/>
<path d="" fill="#FFFFFF" transform="translate(0,0)"/>
<path d="" fill="#FFFFFF" transform="translate(0,0)"/>
<path d="M0 0 C2 1 2 1 2 1 Z " fill="#FFFFFF" transform="translate(412,50)"/>
<path d="" fill="#FFFFFF" transform="translate(0,0)"/>
<path d="" fill="#FFFFFF" transform="translate(0,0)"/>
<path d="" fill="#FFFFFF" transform="translate(0,0)"/>
<path d="" fill="#FFFFFF" transform="translate(0,0)"/>
<path d="" fill="#FFFFFF" transform="translate(0,0)"/>
<path d="" fill="#FFFFFF" transform="translate(0,0)"/>
<path d="" fill="#FFFFFF" transform="translate(0,0)"/>
<path d="" fill="#FFFFFF" transform="translate(0,0)"/>
<path d="" fill="#FFFFFF" transform="translate(0,0)"/>
<path d="" fill="#FFFFFF" transform="translate(0,0)"/>
<path d="" fill="#FFFFFF" transform="translate(0,0)"/>
<path d="" fill="#FFFFFF" transform="translate(0,0)"/>
<path d="" fill="#FFFFFF" transform="translate(0,0)"/>
<path d="" fill="#FFFFFF" transform="translate(0,0)"/>
<path d="" fill="#FFFFFF" transform="translate(0,0)"/>
<path d="" fill="#FFFFFF" transform="translate(0,0)"/>
<path d="" fill="#FFFFFF" transform="translate(0,0)"/>
<path d="" fill="#FFFFFF" transform="translate(0,0)"/>
<path d="" fill="#FFFFFF" transform="translate(0,0)"/>
<path d="" fill="#FFFFFF" transform="translate(0,0)"/>
<path d="" fill="#FFFFFF" transform="translate(0,0)"/>
<path d="" fill="#FFFFFF" transform="translate(0,0)"/>
<path d="" fill="#FFFFFF" transform="translate(0,0)"/>
<path d="" fill="#FFFFFF" transform="translate(0,0)"/>
<path d="" fill="#FFFFFF" transform="translate(0,0)"/>
<path d="" fill="#FFFFFF" transform="translate(0,0)"/>
<path d="" fill="#FFFFFF" transform="translate(0,0)"/>
<path d="" fill="#FFFFFF" transform="translate(0,0)"/>
<path d="" fill="#FFFFFF" transform="translate(0,0)"/>
<path d="" fill="#FFFFFF" transform="translate(0,0)"/>
<path d="" fill="#FFFFFF" transform="translate(0,0)"/>
</svg>
