<?xml version="1.0" encoding="UTF-8"?>
<svg version="1.1" xmlns="http://www.w3.org/2000/svg" width="774" height="322">
<path d="M0 0 C0.763125 0.495 1.52625 0.99 2.3125 1.5 C3.405625 2.03625 4.49875 2.5725 5.625 3.125 C6.9553125 3.805625 6.9553125 3.805625 8.3125 4.5 C7.03800183 8.32349452 5.83173536 8.6362998 2.37109375 10.58203125 C1.32477783 11.17709473 0.27846191 11.7721582 -0.79956055 12.38525391 C-1.93820557 13.02124512 -3.07685059 13.65723633 -4.25 14.3125 C-5.43392823 14.98253983 -6.61727089 15.65361531 -7.80004883 16.32568359 C-9.62465972 17.36221462 -11.44965411 18.39800202 -13.27659607 19.43041992 C-19.17918414 22.7667058 -25.02843166 26.19163208 -30.875 29.625 C-38.75315138 34.23649 -46.66970704 38.77296101 -54.625 43.25 C-67.49755198 50.44036402 -67.49755198 50.44036402 -80.13435268 58.03315067 C-82.18803844 59.21304638 -84.18484811 60.19238449 -86.33612919 61.16483974 C-94.26996153 64.92374931 -94.26996153 64.92374931 -99.05402946 71.90808296 C-99.53796135 76.14036401 -99.54870174 80.14654771 -99.39038086 84.39282227 C-99.38614389 85.99018451 -99.3885363 87.58757592 -99.39701843 89.18492126 C-99.40130583 93.50089161 -99.31344265 97.81055036 -99.20840907 102.12505841 C-99.11433311 106.64106121 -99.1058052 111.15722556 -99.08802795 115.67405701 C-99.04149122 124.21747789 -98.9185305 132.75800337 -98.76778561 141.30015177 C-98.59984527 151.02890637 -98.51758353 160.75780284 -98.44235408 170.48764718 C-98.28576186 190.49337804 -98.02210363 210.49650632 -97.6875 230.5 C-97.11531738 230.52505615 -96.54313477 230.5501123 -95.95361328 230.57592773 C-83.19319492 231.13765108 -70.43885541 231.76010654 -57.6875 232.5 C-57.68511165 231.89592379 -57.68272329 231.29184757 -57.68026257 230.66946602 C-57.62099607 215.93656927 -57.54537196 201.20381837 -57.45178509 186.47110176 C-57.40691614 179.3463095 -57.36748127 172.22156623 -57.34106445 165.09667969 C-57.31801193 158.88296191 -57.28453375 152.66940033 -57.23879844 146.45580661 C-57.21496325 143.169042 -57.19772696 139.88246259 -57.18988609 136.59561539 C-57.18022341 132.91653908 -57.15213646 129.23802021 -57.11987305 125.55908203 C-57.12130814 124.48229691 -57.12274323 123.40551178 -57.1242218 122.2960968 C-57.00429821 112.5876315 -54.86377745 104.71064698 -49.6875 96.5 C-49.0275 96.5 -48.3675 96.5 -47.6875 96.5 C-47.42839844 95.901875 -47.16929687 95.30375 -46.90234375 94.6875 C-43.46888891 88.50507327 -36.12579673 85.33192263 -29.68359375 83.1875 C-19.07028232 80.75211172 -8.39459053 82.0849686 0.9375 87.5625 C10.06479398 93.74097592 15.4589194 102.17830105 17.85081482 112.91677856 C18.51165485 118.04567652 18.44275988 123.12260996 18.42602539 128.28857422 C18.42617142 129.46963242 18.42631744 130.65069061 18.4264679 131.86753845 C18.42589217 135.09230442 18.42088996 138.31702654 18.41389394 141.54178381 C18.40762658 144.91702425 18.40705393 148.29226563 18.40586853 151.66751099 C18.40276517 158.05281833 18.39456523 164.43810847 18.38451904 170.82340825 C18.37332696 178.09547435 18.36783966 185.36754129 18.36282361 192.63961387 C18.35238176 207.59308548 18.33480164 222.54654102 18.3125 237.5 C19.4692347 237.47579987 19.4692347 237.47579987 20.64933777 237.45111084 C33.85193131 237.30702431 46.99894216 238.14655229 60.17578125 238.890625 C62.82546018 239.03712452 65.47515584 239.18328195 68.12487793 239.32899475 C74.45032976 239.67757223 80.77554212 240.03030988 87.10066807 240.38474673 C95.08934388 240.83231928 103.07823158 241.27606002 111.06713867 241.71948242 C111.78664094 241.75941846 112.5061432 241.79935449 113.24744856 241.84050071 C116.14678004 242.00141997 119.04611158 242.162338 121.94544655 242.32319421 C125.55232602 242.52333118 129.15919217 242.72370291 132.76603127 242.92456627 C149.62500322 243.86341539 166.48462557 244.78383965 183.34786415 245.6434288 C186.06278258 245.78198107 188.77763979 245.92167218 191.49247742 246.0617981 C193.19509841 246.14960619 194.89771986 246.23740549 196.6003418 246.32519531 C197.40915393 246.36691549 198.21796606 246.40863567 199.05128765 246.4516201 C203.70925945 246.69104147 208.36754203 246.92260369 213.02618599 247.14854527 C215.15765699 247.25329369 217.28887417 247.36206835 219.42004395 247.47276306 C221.9325382 247.60315255 224.44539073 247.72690251 226.95861816 247.84230042 C228.03164185 247.89990036 229.10466553 247.95750031 230.21020508 248.0168457 C231.13207108 248.06235062 232.05393707 248.10785553 233.0037384 248.15473938 C235.3125 248.5 235.3125 248.5 238.3125 250.5 C120.5025 250.5 2.6925 250.5 -118.6875 250.5 C-118.6875 189.45 -118.6875 128.4 -118.6875 65.5 C-110.6875 61.5 -110.6875 61.5 -108.6875 61.5 C-108.6875 60.84 -108.6875 60.18 -108.6875 59.5 C-107.45 58.91605469 -107.45 58.91605469 -106.1875 58.3203125 C-98.49233457 54.59296674 -91.24148728 50.51163909 -84.10742188 45.78955078 C-80.64659983 43.54001645 -77.89415092 41.93600605 -73.6875 41.5 C-73.6875 40.84 -73.6875 40.18 -73.6875 39.5 C-72.48867187 38.86384766 -72.48867187 38.86384766 -71.265625 38.21484375 C-62.67213914 33.62559954 -54.16812637 28.90625522 -45.890625 23.76171875 C-45.01921875 23.22160156 -44.1478125 22.68148437 -43.25 22.125 C-42.48816406 21.64289063 -41.72632813 21.16078125 -40.94140625 20.6640625 C-38.51779159 19.41235163 -36.37346568 18.90739515 -33.6875 18.5 C-33.6875 17.84 -33.6875 17.18 -33.6875 16.5 C-33.06818604 16.16266846 -32.44887207 15.82533691 -31.81079102 15.4777832 C-28.95698503 13.92307205 -26.10349093 12.36778931 -23.25 10.8125 C-22.27611328 10.28205078 -21.30222656 9.75160156 -20.29882812 9.20507812 C-19.33525391 8.67978516 -18.37167969 8.15449219 -17.37890625 7.61328125 C-15.94502563 6.83428467 -15.94502563 6.83428467 -14.48217773 6.03955078 C-12.66106469 5.03632384 -10.84995759 4.01464576 -9.05102539 2.97216797 C-8.25301514 2.51084473 -7.45500488 2.04952148 -6.6328125 1.57421875 C-5.58311279 0.9548645 -5.58311279 0.9548645 -4.51220703 0.32299805 C-2.6875 -0.5 -2.6875 -0.5 0 0 Z M-36 106.75 C-40.5962335 114.24015829 -41.10119559 121.55171242 -40.9362793 130.17016602 C-40.92696381 131.30289444 -40.91764832 132.43562286 -40.90805054 133.60267639 C-40.87387222 137.32006798 -40.81794397 141.03678836 -40.76171875 144.75390625 C-40.73366528 147.34177755 -40.70697706 149.92966398 -40.68159485 152.51756287 C-40.61850002 158.61608134 -40.54171182 164.71428428 -40.45817453 170.81255239 C-40.36377054 177.76050383 -40.28703288 184.70861614 -40.21171319 191.65679657 C-40.05650828 205.93812457 -39.87933176 220.21911934 -39.6875 234.5 C-34.33138774 234.83520833 -28.97468733 235.15632261 -23.61694336 235.46435547 C-21.79412064 235.57115071 -19.97151985 235.68180637 -18.14916992 235.79638672 C-15.53092302 235.96033902 -12.91219402 236.11042892 -10.29296875 236.2578125 C-9.47724899 236.31188263 -8.66152924 236.36595276 -7.8210907 236.42166138 C-2.96725138 236.69868702 -2.96725138 236.69868702 1.3125 234.5 C1.76473637 232.33428051 1.76473637 232.33428051 1.6867218 229.78216553 C1.69373611 228.78680283 1.70075043 227.79144012 1.70797729 226.76591492 C1.69651169 225.12173332 1.69651169 225.12173332 1.68481445 223.44433594 C1.68846512 222.29300674 1.69211578 221.14167755 1.69587708 219.95545959 C1.70401355 216.13161681 1.69034306 212.30819379 1.67578125 208.484375 C1.67526287 205.83359174 1.67572728 203.1828246 1.67729187 200.53204346 C1.67817562 194.96678626 1.66708173 189.40165067 1.64868164 183.83642578 C1.62755424 177.40967985 1.6239948 170.98311264 1.6302436 164.55633903 C1.63594892 158.37121717 1.63027518 152.18615804 1.61907005 146.00104523 C1.61522006 143.37122094 1.61406901 140.74139127 1.6156559 138.11156464 C1.61602695 134.43201998 1.60339326 130.75274615 1.5871582 127.07324219 C1.58963562 125.98521805 1.59211304 124.89719391 1.59466553 123.77619934 C1.55841857 118.62606504 1.39053781 114.3136429 -0.6875 109.5 C-1.3475 109.5 -2.0075 109.5 -2.6875 109.5 C-2.89375 108.7575 -3.1 108.015 -3.3125 107.25 C-5.51537022 102.84425955 -9.11922952 101.02275683 -13.6875 99.5 C-23.38080407 98.49476847 -29.06109664 99.99863457 -36 106.75 Z " fill="#FDFDFD" transform="translate(210.6875,71.5)"/>
<path d="M0 0 C2.48168945 1.17651367 2.48168945 1.17651367 5.11328125 2.66796875 C6.10126709 3.22411865 7.08925293 3.78026855 8.10717773 4.35327148 C9.16493408 4.95856689 10.22269043 5.5638623 11.3125 6.1875 C12.42117432 6.815354 13.52984863 7.44320801 14.67211914 8.09008789 C24.13218101 13.46337085 33.53192338 18.94008355 42.91796875 24.44140625 C57.66916117 33.08421739 72.50441267 41.58276733 87.35519409 50.05300903 C97.15511798 55.6428506 106.93777305 61.26056467 116.6875 66.9375 C118.22978271 67.83384155 118.22978271 67.83384155 119.80322266 68.74829102 C121.20580322 69.56704712 121.20580322 69.56704712 122.63671875 70.40234375 C123.45873779 70.88179443 124.28075684 71.36124512 125.12768555 71.85522461 C127 73 127 73 128 74 C128.08868299 76.95705321 128.11520296 79.89065056 128.09765625 82.84765625 C128.09553383 84.17729652 128.09553383 84.17729652 128.09336853 85.53379822 C128.08775215 88.37673254 128.07519691 91.21958931 128.0625 94.0625 C128.05748711 95.98502491 128.05292384 97.90755104 128.04882812 99.83007812 C128.03777741 104.55341549 128.02050183 109.27669458 128 114 C124.07017815 113.41534387 121.29425352 112.22655165 117.89453125 110.19140625 C116.9195166 109.61390625 115.94450195 109.03640625 114.93994141 108.44140625 C113.90788574 107.82136719 112.87583008 107.20132813 111.8125 106.5625 C109.65064944 105.28101592 107.48788025 104.00108036 105.32421875 102.72265625 C104.25478027 102.0898877 103.1853418 101.45711914 102.08349609 100.80517578 C97.12637605 97.9031215 92.10286264 95.12617869 87.06176758 92.37329102 C82.54758435 89.89787829 78.12944774 87.2905005 73.72265625 84.62890625 C68.66586731 81.60353898 63.54701678 78.6851096 58.4375 75.75 C50.78991981 71.34992613 43.15474714 66.93241249 35.5625 62.4375 C30.46318728 59.42123396 25.32705779 56.51197596 20.10546875 53.7109375 C14.81030847 50.79360391 9.59601852 47.73530921 4.37158203 44.69360352 C3.5773584 44.23139404 2.78313477 43.76918457 1.96484375 43.29296875 C1.2493335 42.8755542 0.53382324 42.45813965 -0.20336914 42.02807617 C-1.44868509 41.31547589 -2.71668835 40.64165582 -4 40 C-6.74223776 41.42097775 -9.35741671 42.9089497 -12 44.5 C-13.74055304 45.52790677 -15.48145729 46.555219 -17.22265625 47.58203125 C-18.15867676 48.13713379 -19.09469727 48.69223633 -20.05908203 49.26416016 C-25.16314854 52.27677122 -30.30161695 55.22957008 -35.4375 58.1875 C-36.52853027 58.81712646 -37.61956055 59.44675293 -38.74365234 60.09545898 C-47.4469615 65.11553174 -56.17119034 70.09834064 -64.89978027 75.07424927 C-73.02532459 79.70783685 -81.11863766 84.39337067 -89.1875 89.125 C-98.43535373 94.54674012 -107.763484 99.81133146 -117.12866211 105.02734375 C-123.72688065 108.70842781 -130.27005717 112.46588119 -136.76708984 116.32226562 C-143.0265943 120.03361317 -149.34440112 123.63878763 -155.67236328 127.23193359 C-160.66221658 130.07166522 -165.62564436 132.950566 -170.56640625 135.875 C-171.65880615 136.51985352 -172.75120605 137.16470703 -173.87670898 137.82910156 C-176.01097337 139.09121296 -178.14210651 140.35863729 -180.26977539 141.63183594 C-181.23520264 142.20192383 -182.20062988 142.77201172 -183.1953125 143.359375 C-184.05141113 143.86952148 -184.90750977 144.37966797 -185.78955078 144.90527344 C-188 146 -188 146 -191 146 C-191.22307809 140.41351453 -191.38605356 134.82963649 -191.49438477 129.23974609 C-191.53955043 127.34019813 -191.60090169 125.44096146 -191.67895508 123.54248047 C-192.30967914 107.80323563 -192.30967914 107.80323563 -189.20483398 103.52832031 C-186.85096624 101.93924083 -184.66790734 100.95511352 -182 100 C-180.80845358 99.33557124 -179.62855852 98.64955083 -178.46484375 97.9375 C-177.29074903 97.28860568 -176.11489083 96.64289429 -174.9375 96 C-167.93910925 92.12269736 -161.02578921 88.11068003 -154.125 84.0625 C-146.10265012 79.36022219 -138.04784451 74.73486575 -129.88330078 70.28344727 C-126.58602662 68.4776826 -123.358422 66.61807384 -120.1875 64.59765625 C-116.1875988 62.0638815 -112.05325796 59.82703378 -107.88720703 57.58007812 C-103.00848606 54.91010669 -98.22945152 52.07180037 -93.4375 49.25 C-86.1900829 44.99991274 -78.92378126 40.79989054 -71.5625 36.75 C-61.10549896 30.9945872 -50.83403132 24.93338805 -40.625 18.75 C-36.4836522 16.25403618 -32.2596355 13.93887177 -28.00390625 11.64453125 C-23.38096949 9.11363869 -18.82436276 6.46972853 -14.26171875 3.83203125 C-13.18535156 3.22746094 -12.10898438 2.62289063 -11 2 C-9.97519531 1.40574219 -8.95039063 0.81148438 -7.89453125 0.19921875 C-4.50893733 -1.20344972 -3.46060145 -0.97273383 0 0 Z " fill="#FEFEFE" transform="translate(191,5)"/>
<path d="M0 0 C3.63511783 1.89329053 6.73635587 4.08213046 10 6.5625 C7.2732142 9.48408421 4.67061453 11.51854818 1.17578125 13.4453125 C0.23903564 13.96714111 -0.69770996 14.48896973 -1.6628418 15.02661133 C-2.660979 15.57470459 -3.65911621 16.12279785 -4.6875 16.6875 C-6.79232499 17.85949555 -8.89648836 19.03268011 -11 20.20703125 C-12.03125 20.78146973 -13.0625 21.3559082 -14.125 21.94775391 C-17.84492339 24.03705191 -21.52128689 26.19325153 -25.1875 28.375 C-32.66306411 32.8083876 -40.20135288 37.13015434 -47.75 41.4375 C-48.66073776 41.95721375 -48.66073776 41.95721375 -49.58987427 42.48742676 C-53.72581475 44.84713287 -57.86287099 47.20487845 -62 49.5625 C-63.85166159 50.61831582 -65.70323275 51.67429025 -67.5546875 52.73046875 C-68.74768369 53.40638109 -68.74768369 53.40638109 -69.96478081 54.09594822 C-71.62724419 55.05150579 -73.27966438 56.02501587 -74.91591072 57.02480221 C-79.70450126 59.90624677 -84.31005645 62.094934 -89.60372925 63.9032135 C-96.93090268 66.70764804 -104.42567302 69.89423654 -109 76.5625 C-114.15641821 88.53499621 -112.22723401 103.96356139 -111.83817148 116.65186572 C-111.70292904 121.96457121 -111.71645564 127.27695112 -111.71359253 132.59107971 C-111.68588323 142.634007 -111.52615992 152.67023234 -111.31787765 162.71086127 C-111.0871066 174.14941788 -111.00517399 185.58756603 -110.93517137 197.02805984 C-110.78798187 220.54290368 -110.45045522 244.05167789 -110 267.5625 C-117.92 267.5625 -125.84 267.5625 -134 267.5625 C-134.19352665 242.53655316 -134.31292431 217.51149338 -134.33421898 192.48477173 C-134.3459706 180.86415892 -134.38386059 169.24473151 -134.48339844 157.62451172 C-134.57009557 147.49558346 -134.60763409 137.36786634 -134.58627188 127.23856831 C-134.57667409 121.87507861 -134.59160131 116.51419778 -134.66541672 111.15115356 C-134.73415696 106.10038576 -134.73704699 101.05381454 -134.68990898 96.00284004 C-134.68415124 94.15167315 -134.70224866 92.3002511 -134.74625206 90.44959831 C-135.0509453 76.81788757 -135.0509453 76.81788757 -131.62165308 73.04675674 C-127.76915417 70.05243242 -123.50980022 68.33986182 -119 66.5625 C-117.41416696 65.67716335 -115.84126379 64.76676907 -114.30078125 63.8046875 C-113.62853516 63.40636719 -112.95628906 63.00804687 -112.26367188 62.59765625 C-110.95080071 61.81703015 -109.63830719 61.03576859 -108.32617188 60.25390625 C-104.5121937 57.99567809 -100.66421021 55.82860708 -96.76171875 53.7265625 C-90.55713702 50.3627296 -84.53126999 46.72566398 -78.5 43.0625 C-71.63514902 38.89305063 -64.75171269 34.82015731 -57.68017578 31.01025391 C-53.15078725 28.56360844 -48.66975477 26.03168758 -44.1875 23.5 C-43.20845703 22.94707275 -42.22941406 22.39414551 -41.22070312 21.82446289 C-32.31057622 16.7729682 -23.4892587 11.57730202 -14.6875 6.33984375 C-13.88570313 5.86587158 -13.08390625 5.39189941 -12.2578125 4.90356445 C-10.80877078 4.04288256 -9.36546533 3.1724258 -7.9296875 2.28979492 C-3.32698716 -0.48518563 -3.32698716 -0.48518563 0 0 Z " fill="#FEFEFE" transform="translate(189,54.4375)"/>
<path d="M0 0 C1.5631897 0.00785522 1.5631897 0.00785522 3.15795898 0.01586914 C4.28266602 0.0190918 5.40737305 0.02231445 6.56616211 0.02563477 C7.75016602 0.03401367 8.93416992 0.04239258 10.15405273 0.05102539 C11.34192383 0.05553711 12.52979492 0.06004883 13.75366211 0.06469727 C16.69967499 0.07652864 19.64558954 0.09301252 22.59155273 0.11352539 C24.38800057 5.44836226 26.13539795 10.79163902 27.77905273 16.17602539 C28.12323242 17.30137695 28.46741211 18.42672852 28.82202148 19.58618164 C29.0759668 20.42020508 29.32991211 21.25422852 29.59155273 22.11352539 C31.88219629 19.82288184 32.13508254 18.64305934 32.88061523 15.54321289 C33.07864746 14.73609863 33.27667969 13.92898437 33.48071289 13.09741211 C33.72354004 12.07147949 33.96636719 11.04554688 34.21655273 9.98852539 C35.00030273 6.72977539 35.78405273 3.47102539 36.59155273 0.11352539 C44.84155273 0.11352539 53.09155273 0.11352539 61.59155273 0.11352539 C62.59661714 3.12871861 62.68309534 4.99410822 62.61328125 8.13574219 C62.59318497 9.15657394 62.57308868 10.1774057 62.55238342 11.22917175 C62.52534836 12.32925064 62.49831329 13.42932953 62.47045898 14.56274414 C62.4350425 16.25437431 62.4350425 16.25437431 62.39891052 17.98017883 C62.32224991 21.58725497 62.2382355 25.19411772 62.15405273 28.80102539 C62.10083448 31.24437427 62.04809406 33.68773362 61.99584961 36.13110352 C61.86663147 42.12537658 61.73137297 48.11949077 61.59155273 54.11352539 C58.6123268 54.14036526 55.63333979 54.16028576 52.65405273 54.17602539 C51.37884766 54.18859375 51.37884766 54.18859375 50.07788086 54.20141602 C49.26899414 54.20463867 48.46010742 54.20786133 47.62670898 54.21118164 C46.87784424 54.21641846 46.12897949 54.22165527 45.35742188 54.22705078 C43.59155273 54.11352539 43.59155273 54.11352539 42.59155273 53.11352539 C42.35460126 50.41929934 42.16986671 47.75017928 42.02905273 45.05102539 C41.88467773 42.43165039 41.74030273 39.81227539 41.59155273 37.11352539 C39.94155273 42.72352539 38.29155273 48.33352539 36.59155273 54.11352539 C31.64155273 54.11352539 26.69155273 54.11352539 21.59155273 54.11352539 C19.16761739 47.18799584 17.3134927 40.24727669 15.59155273 33.11352539 C15.26155273 40.04352539 14.93155273 46.97352539 14.59155273 54.11352539 C8.98155273 54.11352539 3.37155273 54.11352539 -2.40844727 54.11352539 C-2.57561963 46.5839458 -2.73622358 39.05426639 -2.890625 31.52441406 C-2.94413662 28.9605732 -2.99947269 26.39676976 -3.05664062 23.83300781 C-3.13829669 20.15706456 -3.21348258 16.48103853 -3.28735352 12.80493164 C-3.32790611 11.07370811 -3.32790611 11.07370811 -3.36927795 9.30751038 C-3.38937424 8.24648605 -3.40947052 7.18546173 -3.43017578 6.09228516 C-3.45016129 5.15296646 -3.47014679 4.21364777 -3.49073792 3.24586487 C-3.37257509 0.18399512 -3.0664304 0.14454031 0 0 Z M29.59155273 25.11352539 C30.59155273 28.11352539 30.59155273 28.11352539 30.59155273 28.11352539 Z M42.59155273 27.11352539 C42.59155273 28.76352539 42.59155273 30.41352539 42.59155273 32.11352539 C42.92155273 32.11352539 43.25155273 32.11352539 43.59155273 32.11352539 C43.59155273 30.46352539 43.59155273 28.81352539 43.59155273 27.11352539 C43.26155273 27.11352539 42.93155273 27.11352539 42.59155273 27.11352539 Z " fill="#FDFDFD" transform="translate(372.408447265625,175.886474609375)"/>
<path d="M0 0 C6.27 -0.0825 12.54 -0.165 19 -0.25 C20.96324219 -0.28641602 22.92648437 -0.32283203 24.94921875 -0.36035156 C26.52863476 -0.3720486 28.10806295 -0.38223801 29.6875 -0.390625 C30.88922852 -0.4213208 30.88922852 -0.4213208 32.11523438 -0.45263672 C37.82479204 -0.45612667 42.26350153 0.71028847 47 4 C50.42749247 8.605693 50.77952323 13.44076853 50 19 C48.61019502 21.96912882 47.30342972 23.69657028 45 26 C45.78375 26.721875 46.5675 27.44375 47.375 28.1875 C50.45635402 31.48895074 51.92251095 33.54314137 52.06640625 38.10546875 C51.74073984 43.99707023 50.25825572 46.93980269 46 51 C43.11484071 52.73795193 40.94978054 53.25970976 37.59863281 53.31884766 C36.72609863 53.33890869 35.85356445 53.35896973 34.95458984 53.37963867 C33.59261475 53.39667847 33.59261475 53.39667847 32.203125 53.4140625 C31.36185059 53.43170654 30.52057617 53.44935059 29.65380859 53.4675293 C26.51939807 53.53046587 23.38467089 53.57674263 20.25 53.625 C13.2375 53.74875 6.225 53.8725 -1 54 C-0.67 36.18 -0.34 18.36 0 0 Z M18 13 C18 15.31 18 17.62 18 20 C19.97909398 20.02686553 21.95828971 20.04633375 23.9375 20.0625 C25.59072266 20.07990234 25.59072266 20.07990234 27.27734375 20.09765625 C29.91447634 20.31262571 29.91447634 20.31262571 31 19 C31.04063832 17.33382885 31.042721 15.66611905 31 14 C28.35541621 12.67770811 26.32238699 12.90322806 23.375 12.9375 C21.87066406 12.95103516 21.87066406 12.95103516 20.3359375 12.96484375 C19.17964844 12.98224609 19.17964844 12.98224609 18 13 Z M18 33 C18 35.31 18 37.62 18 40 C20.14576637 40.02685938 22.29162645 40.04633088 24.4375 40.0625 C26.22994141 40.07990234 26.22994141 40.07990234 28.05859375 40.09765625 C30.88873341 40.33901792 30.88873341 40.33901792 32 39 C32.16666667 36.5 32.16666667 36.5 32 34 C30.88873341 32.66098208 30.88873341 32.66098208 28.05859375 32.90234375 C26.86363281 32.91394531 25.66867187 32.92554688 24.4375 32.9375 C23.23996094 32.94652344 22.04242187 32.95554688 20.80859375 32.96484375 C19.41833984 32.98224609 19.41833984 32.98224609 18 33 Z " fill="#FEFEFE" transform="translate(522,176)"/>
<path d="M0 0 C5.55179023 4.79472792 8.92858232 10.0461289 9.75 17.375 C10.48743432 27.68699136 9.47118191 34.79322713 3.75 43.375 C3.09 43.375 2.43 43.375 1.75 43.375 C1.75 44.035 1.75 44.695 1.75 45.375 C-7.74397028 51.70431352 -18.15886335 52.31243906 -29.25 50.375 C-36.20234181 48.30365332 -40.84357787 44.94006982 -44.9375 38.875 C-49.09147469 30.96266726 -49.56999621 22.92034492 -47.4921875 14.19140625 C-44.49315834 5.48949881 -41.03692249 1.42085395 -32.78515625 -2.609375 C-21.99849318 -6.9306884 -10.13412486 -5.06706243 0 0 Z M-26.8125 12.1875 C-30.23487317 17.39545917 -29.8055331 23.36730638 -29.25 29.375 C-27.34752858 33.7887337 -26.20536 34.95811564 -21.8125 36.875 C-17.97154037 37.41408205 -16.51080488 37.40198682 -13.25 35.375 C-10.47755051 32.55651352 -9.33503746 30.95352257 -8.75390625 27 C-8.77324219 25.80375 -8.79257812 24.6075 -8.8125 23.375 C-8.81378906 22.17875 -8.81507813 20.9825 -8.81640625 19.75 C-9.27678915 16.16647905 -10.09414923 14.24243966 -12.25 11.375 C-16.73967416 9.13016292 -22.7687982 9.32732068 -26.8125 12.1875 Z " fill="#FDFDFD" transform="translate(354.25,179.625)"/>
<path d="M0 0 C4.888125 -0.0825 9.77625 -0.165 14.8125 -0.25 C16.33077393 -0.28641602 17.84904785 -0.32283203 19.41333008 -0.36035156 C28.76772814 -0.43624932 36.97295162 0.33488955 44.75390625 6.0078125 C49.41167164 11.46031539 51.50365119 15.83051713 52 23 C52.10248047 24.25683594 52.10248047 24.25683594 52.20703125 25.5390625 C52.52375184 33.11689587 51.03803674 39.72464648 46.375 45.8125 C40.62099007 51.9510601 34.1545942 52.98067572 26 54 C17.42 54 8.84 54 0 54 C0 36.18 0 18.36 0 0 Z M19 15 C19 22.92 19 30.84 19 39 C24.56831126 40.11366225 26.15066693 39.65340866 31 37 C33.09192763 33.88611429 33.27052739 31.26256288 33.25 27.5625 C33.25515625 26.63566406 33.2603125 25.70882812 33.265625 24.75390625 C32.97849571 21.77705113 32.36701054 19.65655714 31 17 C27.35284977 14.16794971 27.35284977 14.16794971 19 15 Z " fill="#FEFEFE" transform="translate(722,176)"/>
<path d="M0 0 C6.27 0.33 12.54 0.66 19 1 C20.59273144 4.18546289 20.10141833 7.63199348 20.0625 11.125 C20.041875 13.72375 20.02125 16.3225 20 19 C25.28 19.33 30.56 19.66 36 20 C36 13.73 36 7.46 36 1 C41.94 1 47.88 1 54 1 C54.16763197 8.04738488 54.3281904 15.09488187 54.48217773 22.14257812 C54.53556744 24.54040877 54.59089442 26.93819709 54.64819336 29.3359375 C54.73018845 32.78115717 54.80522965 36.22646865 54.87890625 39.671875 C54.90594131 40.74491882 54.93297638 41.81796265 54.96083069 42.92352295 C54.98092697 43.92425842 55.00102325 44.9249939 55.02172852 45.95605469 C55.04171402 46.83541687 55.06169952 47.71477905 55.08229065 48.62078857 C55 51 55 51 54 55 C48.06 55 42.12 55 36 55 C34.34502644 51.69005287 34.89915665 48.00877 34.9375 44.375 C34.94201172 43.57320312 34.94652344 42.77140625 34.95117188 41.9453125 C34.96296832 39.96350994 34.98090395 37.98174567 35 36 C30.05 36 25.1 36 20 36 C20 41.94 20 47.88 20 54 C15.64220019 54.87155996 12.09253894 55.10366859 7.6875 55.0625 C6.43324219 55.05347656 5.17898437 55.04445312 3.88671875 55.03515625 C2.93410156 55.02355469 1.98148438 55.01195312 1 55 C0.85718069 47.64934048 0.71480993 40.29867236 0.57275391 32.94799805 C0.52435518 30.44636843 0.47585302 27.94474081 0.42724609 25.44311523 C0.3574765 21.85140492 0.28807648 18.25968764 0.21875 14.66796875 C0.19687622 13.54601608 0.17500244 12.42406342 0.15246582 11.26811218 C0.13244507 10.22725967 0.11242432 9.18640717 0.09179688 8.11401367 C0.07403198 7.19690109 0.05626709 6.27978851 0.03796387 5.33488464 C0.00905292 3.55677976 0 1.77833991 0 0 Z " fill="#FEFEFE" transform="translate(245,175)"/>
<path d="M0 0 C15.51 0 31.02 0 47 0 C47 4.95 47 9.9 47 15 C37.76 15 28.52 15 19 15 C19 16.32 19 17.64 19 19 C19.69150146 18.99476318 20.38300293 18.98952637 21.09545898 18.98413086 C24.20946352 18.963425 27.32345361 18.95036037 30.4375 18.9375 C31.52611328 18.92912109 32.61472656 18.92074219 33.73632812 18.91210938 C34.77080078 18.90888672 35.80527344 18.90566406 36.87109375 18.90234375 C37.82943115 18.89710693 38.78776855 18.89187012 39.77514648 18.88647461 C42 19 42 19 43 20 C43.07258946 22.18639453 43.08373783 24.37500389 43.0625 26.5625 C43.05347656 27.76003906 43.04445313 28.95757812 43.03515625 30.19140625 C43.02355469 31.11824219 43.01195312 32.04507813 43 33 C40.49502996 34.25248502 38.79146726 34.11374406 35.9921875 34.09765625 C35.00605469 34.09443359 34.01992188 34.09121094 33.00390625 34.08789062 C31.97136719 34.07951172 30.93882812 34.07113281 29.875 34.0625 C28.31458984 34.05573242 28.31458984 34.05573242 26.72265625 34.04882812 C24.14838038 34.03701952 21.57421854 34.02055075 19 34 C19 35.65 19 37.3 19 39 C28.24 39 37.48 39 47 39 C47 43.95 47 48.9 47 54 C31.49 54 15.98 54 0 54 C0 36.18 0 18.36 0 0 Z " fill="#FEFEFE" transform="translate(442,176)"/>
<path d="M0 0 C1.18613892 0.07069702 1.18613892 0.07069702 2.39624023 0.14282227 C3.67724609 0.21533203 3.67724609 0.21533203 4.98413086 0.28930664 C5.88196289 0.34538086 6.77979492 0.40145508 7.70483398 0.45922852 C8.6065332 0.51143555 9.50823242 0.56364258 10.43725586 0.61743164 C12.67259948 0.74753101 14.90754288 0.88250788 17.14233398 1.02172852 C17.13073242 2.17286133 17.11913086 3.32399414 17.10717773 4.51000977 C17.02896208 16.05048577 17.42010226 27.50471193 18.14233398 39.02172852 C18.80233398 39.02172852 19.46233398 39.02172852 20.14233398 39.02172852 C20.14233398 39.68172852 20.14233398 40.34172852 20.14233398 41.02172852 C21.7698563 40.76648978 23.39436594 40.49198357 25.01733398 40.20922852 C25.92225586 40.0584082 26.82717773 39.90758789 27.75952148 39.75219727 C30.48645877 39.19121551 30.48645877 39.19121551 32.14233398 36.02172852 C32.31395423 33.33577936 32.37457951 30.7562795 32.33764648 28.07250977 C32.33340164 26.91358467 32.33340164 26.91358467 32.32907104 25.73124695 C32.31788277 23.26541609 32.29278101 20.79994945 32.26733398 18.33422852 C32.25730242 16.66170772 32.24817688 14.98918123 32.23999023 13.31665039 C32.21964998 9.21809014 32.18049983 5.12031667 32.14233398 1.02172852 C38.41233398 1.02172852 44.68233398 1.02172852 51.14233398 1.02172852 C51.35524282 5.84167671 51.55762519 10.65985441 51.734375 15.48095703 C51.79740296 17.11726613 51.86629722 18.75336108 51.94140625 20.38916016 C52.80202158 39.31692139 52.80202158 39.31692139 47.01733398 48.33422852 C40.19275723 54.71372418 32.3004736 56.13606234 23.14233398 56.02172852 C16.63356577 55.43791173 10.75951792 54.45445203 5.14233398 51.02172852 C5.14233398 50.36172852 5.14233398 49.70172852 5.14233398 49.02172852 C4.15233398 48.69172852 3.16233398 48.36172852 2.14233398 48.02172852 C-1.86224401 42.32290598 -2.04198164 37.1568724 -2.20922852 30.35375977 C-2.23238129 29.51834152 -2.25553406 28.68292328 -2.27938843 27.82218933 C-2.32690893 26.06136838 -2.37215697 24.30048483 -2.4152832 22.53955078 C-2.48268422 19.83349758 -2.56035328 17.1278687 -2.63891602 14.42211914 C-2.6838049 12.71184879 -2.7280966 11.00156264 -2.77172852 9.29125977 C-2.79562653 8.47776566 -2.81952454 7.66427155 -2.84414673 6.8261261 C-2.88778009 4.89181372 -2.87822374 2.95642374 -2.85766602 1.02172852 C-1.85766602 0.02172852 -1.85766602 0.02172852 0 0 Z " fill="#FEFEFE" transform="translate(581.857666015625,174.978271484375)"/>
<path d="M0 0 C3.5625 0.375 3.5625 0.375 5.109375 2 C6.83951506 4.8277558 8.10307209 7.68756201 9.375 10.75 C9.62999268 11.35634277 9.88498535 11.96268555 10.14770508 12.58740234 C11.23143254 15.16486252 12.30211177 17.74768684 13.37402344 20.33007812 C14.16151621 22.22196985 14.95559674 24.11100192 15.75 26 C16.21792969 27.12664062 16.68585937 28.25328125 17.16796875 29.4140625 C18.41080826 32.05292062 19.71164612 34.13650416 21.5625 36.375 C23.2125 34.395 24.8625 32.415 26.5625 30.375 C27.17996094 30.7359375 27.79742188 31.096875 28.43359375 31.46875 C34.53136091 34.80999228 38.62519398 35.93446016 45.5625 35.375 C46.2225 34.055 46.8825 32.735 47.5625 31.375 C45.09934225 28.40108714 42.96910993 27.76568354 39.25 26.9375 C33.16370713 25.39982548 29.1489125 23.75461874 25.5625 18.375 C24.87958686 13.68989822 24.88514156 9.64843387 27.125 5.4375 C32.36993572 0.99947747 37.1765054 -0.18484877 43.921875 0.01171875 C48.42289591 0.63094204 52.59136105 2.1768342 56.5625 4.375 C57.0575 5.365 57.0575 5.365 57.5625 6.375 C55.10795455 12.10227273 55.10795455 12.10227273 52.5625 13.375 C51.5725 12.900625 50.5825 12.42625 49.5625 11.9375 C44.97841319 9.8053666 40.52067743 10.10564227 35.5625 10.375 C36.03241163 12.83843162 36.03241163 12.83843162 37.5625 15.375 C40.64788194 16.86109521 43.64116672 17.91638088 46.88867188 18.95898438 C52.03804984 20.76712402 54.51280001 22.79755656 57.5625 27.375 C58.62405509 31.12166501 58.43550069 34.75616801 56.5703125 38.21484375 C54.28143967 41.12213874 51.99590474 43.08380505 48.5625 44.375 C40.83238555 45.05369876 33.41611289 45.33486522 26.5625 41.375 C25.758125 40.983125 24.95375 40.59125 24.125 40.1875 C23.609375 39.919375 23.09375 39.65125 22.5625 39.375 C22.5625 41.025 22.5625 42.675 22.5625 44.375 C19.5925 44.375 16.6225 44.375 13.5625 44.375 C10.5625 38.75 10.5625 38.75 10.5625 35.375 C3.6325 35.375 -3.2975 35.375 -10.4375 35.375 C-10.7675 36.695 -11.0975 38.015 -11.4375 39.375 C-12.0844365 41.0494239 -12.74709426 42.71802621 -13.4375 44.375 C-16.7375 44.375 -20.0375 44.375 -23.4375 44.375 C-22.18265547 40.4382187 -20.75734794 36.70488369 -19.01171875 32.9609375 C-18.54443359 31.95160156 -18.07714844 30.94226563 -17.59570312 29.90234375 C-17.11037109 28.86207031 -16.62503906 27.82179688 -16.125 26.75 C-12.74109041 19.48495328 -9.49051169 12.20831791 -6.52661133 4.76025391 C-4.84142136 1.069533 -4.10831517 0.44817984 0 0 Z M-0.4375 11.375 C-1.06978516 12.85613281 -1.06978516 12.85613281 -1.71484375 14.3671875 C-2.26819726 15.66147198 -2.82158442 16.95574206 -3.375 18.25 C-3.65279297 18.90097656 -3.93058594 19.55195313 -4.21679688 20.22265625 C-6.32421875 25.1484375 -6.32421875 25.1484375 -7.4375 27.375 C-2.8175 27.375 1.8025 27.375 6.5625 27.375 C4.5825 22.095 2.6025 16.815 0.5625 11.375 C0.2325 11.375 -0.0975 11.375 -0.4375 11.375 Z " fill="#FCFCFC" transform="translate(553.4375,247.625)"/>
<path d="M0 0 C5.94 0 11.88 0 18 0 C19.23180134 3.69540402 19.12412112 7.10303378 19.09765625 10.94921875 C19.0962413 11.72183548 19.09482635 12.49445221 19.09336853 13.29048157 C19.08777466 15.75619389 19.07522333 18.22181515 19.0625 20.6875 C19.05748421 22.36002473 19.05292144 24.03255088 19.04882812 25.70507812 C19.03865847 29.80344866 19.01908194 33.90162248 19 38 C27.58 38 36.16 38 45 38 C46 43 46 43 45 54 C30.15 54 15.3 54 0 54 C0 36.18 0 18.36 0 0 Z " fill="#FEFEFE" transform="translate(672,176)"/>
<path d="M0 0 C0.84667854 9.41767049 1.37080683 18.5871264 0 28 C-0.495 28.495 -0.495 28.495 -1 29 C-2.98 29 -4.96 29 -7 29 C-7 20.75 -7 12.5 -7 4 C-7.66 4.99 -8.32 5.98 -9 7 C-11.64 6.67 -14.28 6.34 -17 6 C-17 13.59 -17 21.18 -17 29 C-19.64 29 -22.28 29 -25 29 C-24.67 21.41 -24.34 13.82 -24 6 C-32.39090008 6.40736224 -32.39090008 6.40736224 -37 9 C-37.99 8.34 -38.98 7.68 -40 7 C-42.71809218 6.52871789 -45.28015561 6.5343899 -48 7 C-50.49846168 9.25667506 -51.69495415 11.64449567 -52 15 C-51.26167909 17.81904347 -50.660503 19.46651681 -48.375 21.3125 C-44.86233535 22.32932398 -41.65099493 22.12169983 -38 22 C-38 21.34 -38 20.68 -38 20 C-36.68 20 -35.36 20 -34 20 C-33.34 21.65 -32.68 23.3 -32 25 C-40.06451613 30 -40.06451613 30 -45 30 C-50.41475742 28.27843414 -54.68276648 25.68234623 -59 22 C-59.99 21.67 -60.98 21.34 -62 21 C-62.3403125 22.1446875 -62.3403125 22.1446875 -62.6875 23.3125 C-64.32002096 26.65528101 -65.64002581 27.47273901 -69 29 C-73.61604115 30.43610169 -76.67084488 29.75218797 -81.0703125 28.1796875 C-83.96356235 26.41093962 -85.25097511 24.9540766 -87 22 C-87.64471531 18.42145949 -87.7414683 14.87996464 -87.8125 11.25 C-87.85052734 10.27933594 -87.88855469 9.30867187 -87.92773438 8.30859375 C-88.09559864 3.20123409 -88.09559864 3.20123409 -88 1 C-87 0 -87 0 -83.9375 -0.0625 C-82.4834375 -0.0315625 -82.4834375 -0.0315625 -81 0 C-80.94392578 1.75376953 -80.94392578 1.75376953 -80.88671875 3.54296875 C-80.8210372 5.09117675 -80.75459061 6.63935242 -80.6875 8.1875 C-80.66494141 8.95642578 -80.64238281 9.72535156 -80.61914062 10.51757812 C-80.40452647 15.06349604 -80.0302005 18.36663163 -77 22 C-73.95746492 22.58345476 -73.95746492 22.58345476 -71 22 C-68.56085508 19.56085508 -68.71337477 18.78553569 -68.5859375 15.4296875 C-68.54726563 14.53378906 -68.50859375 13.63789063 -68.46875 12.71484375 C-68.4378125 11.77769531 -68.406875 10.84054688 -68.375 9.875 C-68.33632813 8.93011719 -68.29765625 7.98523438 -68.2578125 7.01171875 C-68.16338654 4.67467625 -68.07781606 2.33764499 -68 0 C-65.69 0 -63.38 0 -61 0 C-60.67 4.95 -60.34 9.9 -60 15 C-59.979375 13.80375 -59.95875 12.6075 -59.9375 11.375 C-59.4933841 7.64310069 -58.45882316 6.01450278 -55.625 3.5625 C-51.68380377 0.48501273 -48.45340646 -0.15421098 -43.5 -0.1875 C-42.06140625 -0.20876953 -42.06140625 -0.20876953 -40.59375 -0.23046875 C-38 0 -38 0 -35 2 C-34.34 1.34 -33.68 0.68 -33 0 C-30.8203125 -0.3347168 -30.8203125 -0.3347168 -28.125 -0.44921875 C-27.13886719 -0.49240234 -26.15273438 -0.53558594 -25.13671875 -0.58007812 C-24.10160156 -0.61552734 -23.06648438 -0.65097656 -22 -0.6875 C-20.99582031 -0.73455078 -19.99164063 -0.78160156 -18.95703125 -0.83007812 C-12.54361539 -1.08313011 -6.36455872 -0.82813188 0 0 Z M-61 17 C-60 19 -60 19 -60 19 Z M-59 18 C-58 20 -58 20 -58 20 Z " fill="#FDFDFD" transform="translate(502,128)"/>
<path d="M0 0 C6.02977175 0.66357929 11.90138945 0.33720255 17.9453125 0.00390625 C26.0878381 -0.36971587 34.17429907 -0.61552012 42.3203125 -0.24609375 C43.08335693 -0.21966797 43.84640137 -0.19324219 44.63256836 -0.16601562 C49.01757188 0.0855543 52.00831172 0.8084339 55.5078125 3.50390625 C57.21997952 6.38345987 57.52529366 8.09309899 57.3828125 11.44140625 C56.35987207 15.02169775 54.70846308 17.52237966 52.5078125 20.50390625 C54.1578125 23.14390625 55.8078125 25.78390625 57.5078125 28.50390625 C56.5078125 29.50390625 56.5078125 29.50390625 52.9453125 29.56640625 C51.8109375 29.54578125 50.6765625 29.52515625 49.5078125 29.50390625 C48.9715625 28.36953125 48.4353125 27.23515625 47.8828125 26.06640625 C46.14038399 22.95761293 45.88504981 22.61272471 42.2578125 21.56640625 C40.8965625 21.53546875 40.8965625 21.53546875 39.5078125 21.50390625 C39.5284375 22.63828125 39.5490625 23.77265625 39.5703125 24.94140625 C39.5078125 28.50390625 39.5078125 28.50390625 38.5078125 29.50390625 C36.5278125 29.50390625 34.5478125 29.50390625 32.5078125 29.50390625 C32.1778125 21.91390625 31.8478125 14.32390625 31.5078125 6.50390625 C27.0528125 6.99890625 27.0528125 6.99890625 22.5078125 7.50390625 C22.51304932 8.13482178 22.51828613 8.7657373 22.52368164 9.41577148 C22.54439076 12.25763972 22.55745316 15.09949213 22.5703125 17.94140625 C22.57869141 18.93462891 22.58707031 19.92785156 22.59570312 20.95117188 C22.59892578 21.89541016 22.60214844 22.83964844 22.60546875 23.8125 C22.61070557 24.68704834 22.61594238 25.56159668 22.62133789 26.46264648 C22.5078125 28.50390625 22.5078125 28.50390625 21.5078125 29.50390625 C19.50822886 29.54471408 17.50735996 29.54644981 15.5078125 29.50390625 C14.25730963 27.00290051 14.47787801 25.50047573 14.62890625 22.71484375 C14.67724609 21.77382812 14.72558594 20.8328125 14.77539062 19.86328125 C14.83146484 18.8784375 14.88753906 17.89359375 14.9453125 16.87890625 C14.99751953 15.88632813 15.04972656 14.89375 15.10351562 13.87109375 C15.23339983 11.41510157 15.36997888 8.95946513 15.5078125 6.50390625 C11.8778125 6.50390625 8.2478125 6.50390625 4.5078125 6.50390625 C4.5078125 7.16390625 4.5078125 7.82390625 4.5078125 8.50390625 C0.5478125 8.17390625 -3.4121875 7.84390625 -7.4921875 7.50390625 C-7.8221875 8.16390625 -8.1521875 8.82390625 -8.4921875 9.50390625 C-7.90050781 9.601875 -7.30882812 9.69984375 -6.69921875 9.80078125 C-1.64384602 10.75742601 1.75547985 11.7515736 5.5078125 15.50390625 C7.05368126 18.59564377 6.80140771 21.09820177 6.5078125 24.50390625 C4.28918221 27.41107698 2.98836321 28.34372268 -0.4921875 29.50390625 C-7.39227051 30.34909714 -12.4230013 28.71784883 -18.4921875 25.50390625 C-17.5021875 23.52390625 -16.5121875 21.54390625 -15.4921875 19.50390625 C-14.1721875 19.50390625 -12.8521875 19.50390625 -11.4921875 19.50390625 C-11.4921875 20.16390625 -11.4921875 20.82390625 -11.4921875 21.50390625 C-7.8621875 21.83390625 -4.2321875 22.16390625 -0.4921875 22.50390625 C-0.4921875 21.51390625 -0.4921875 20.52390625 -0.4921875 19.50390625 C-1.38421875 19.39175781 -2.27625 19.27960938 -3.1953125 19.1640625 C-12.64160734 17.57234101 -12.64160734 17.57234101 -15.24609375 14.30078125 C-16.20799912 12.04332068 -16.95552145 9.89633341 -17.4921875 7.50390625 C-14.39575099 3.05277877 -12.28220552 0.73038401 -6.69873047 -0.33569336 C-4.36455147 -0.50537201 -2.31735625 -0.31423019 0 0 Z M5.5078125 1.50390625 C6.5078125 5.50390625 6.5078125 5.50390625 6.5078125 5.50390625 Z M39.5078125 6.50390625 C39.5078125 9.14390625 39.5078125 11.78390625 39.5078125 14.50390625 C42.8078125 14.50390625 46.1078125 14.50390625 49.5078125 14.50390625 C49.8378125 12.52390625 50.1678125 10.54390625 50.5078125 8.50390625 C47.41892728 6.44464944 46.79845323 6.26486885 43.3203125 6.37890625 C42.0621875 6.42015625 40.8040625 6.46140625 39.5078125 6.50390625 Z " fill="#FDFDFD" transform="translate(354.4921875,127.49609375)"/>
<path d="M0 0 C1.44564876 -0.08285005 2.8926603 -0.1421667 4.33984375 -0.19140625 C5.14542725 -0.22693604 5.95101074 -0.26246582 6.78100586 -0.29907227 C9 0 9 0 11.5625 3.0625 C12.40679388 4.69225196 13.2129586 6.34184155 14 8 C15.00141511 9.96723366 16.01937462 11.92479693 17.04663086 13.87866211 C17.75963818 15.23994595 18.4599511 16.60796244 19.14672852 17.98266602 C21.090415 22.04207603 21.090415 22.04207603 25 24 C25.23460937 23.20335937 25.46921875 22.40671875 25.7109375 21.5859375 C27.33483055 17.06856229 29.44537895 12.89569499 31.625 8.625 C32.25535156 7.37783203 32.25535156 7.37783203 32.8984375 6.10546875 C33.92864639 4.06846481 34.96382401 2.0339751 36 0 C39.3 0 42.6 0 46 0 C46.91035504 2.73106511 47.12215713 4.29893239 47.11352539 7.10424805 C47.11344986 7.92487228 47.11337433 8.74549652 47.11329651 9.59098816 C47.10813522 10.47232925 47.10297394 11.35367035 47.09765625 12.26171875 C47.0962413 13.16751175 47.09482635 14.07330475 47.09336853 15.00654602 C47.08777001 17.90023091 47.07521781 20.79383849 47.0625 23.6875 C47.05748481 25.64908742 47.05292193 27.61067606 47.04882812 29.57226562 C47.03780107 34.38154021 47.02053747 39.190757 47 44 C43.7 44 40.4 44 37 44 C37 35.75 37 27.5 37 19 C33.75183677 25.5358998 33.75183677 25.5358998 30.50805664 32.07397461 C30.10449951 32.88358643 29.70094238 33.69319824 29.28515625 34.52734375 C28.87144775 35.35999756 28.45773926 36.19265137 28.03149414 37.05053711 C27 39 27 39 26 40 C24.02 40 22.04 40 20 40 C16.7 34.06 13.4 28.12 10 22 C9.15402476 30.0928695 9.15402476 30.0928695 9 38.0625 C9.03692385 39.70791909 9.04777176 41.35486012 9 43 C8 44 8 44 6.15234375 44.09765625 C4.1015625 44.06510417 2.05078125 44.03255208 0 44 C-1.15609707 41.68780587 -1.09085101 40.48269304 -1.02172852 37.91748047 C-1.00163223 37.07675995 -0.98153595 36.23603943 -0.96083069 35.36984253 C-0.92027809 34.00727829 -0.92027809 34.00727829 -0.87890625 32.6171875 C-0.84348976 31.22308151 -0.84348976 31.22308151 -0.80735779 29.80081177 C-0.7306391 26.82538894 -0.64665009 23.85022104 -0.5625 20.875 C-0.50928753 18.86068966 -0.45654708 16.84636678 -0.40429688 14.83203125 C-0.27501284 9.88785868 -0.13920707 4.94390273 0 0 Z M8 16 C9 18 9 18 9 18 Z M9 18 C10 20 10 20 10 20 Z M22 25 C22.66 25.66 23.32 26.32 24 27 C24 26.34 24 25.68 24 25 C23.34 25 22.68 25 22 25 Z " fill="#FDFDFD" transform="translate(338,248)"/>
<path d="M0 0 C0.93005859 -0.020625 1.86011719 -0.04125 2.81835938 -0.0625 C10.16860883 -0.10382255 15.75961313 0.9011271 21.8125 5.375 C24.6237951 9.1785169 25.62251718 12.54948718 25.9375 17.25 C25.09194147 22.3233512 23.45556268 25.5120584 19.9375 29.25 C19.2775 29.58 18.6175 29.91 17.9375 30.25 C18.515 31.09304688 19.0925 31.93609375 19.6875 32.8046875 C20.43774193 33.91129435 21.18772874 35.01807419 21.9375 36.125 C23.05125 37.76082031 23.05125 37.76082031 24.1875 39.4296875 C25.9375 42.25 25.9375 42.25 25.9375 44.25 C22.40399393 44.95385735 19.43692193 45.21001841 15.9375 44.25 C14.1015625 41.8359375 14.1015625 41.8359375 12.5 38.8125 C10.26981646 34.4261013 10.26981646 34.4261013 6.0625 32.296875 C2.66969175 31.97912481 2.66969175 31.97912481 -2.0625 32.25 C-2.0625 36.21 -2.0625 40.17 -2.0625 44.25 C-5.0325 44.25 -8.0025 44.25 -11.0625 44.25 C-11.08714513 38.1444529 -11.10533371 32.03893449 -11.11743164 25.93334961 C-11.12247288 23.85456844 -11.12930574 21.77579084 -11.13793945 19.69702148 C-11.15001422 16.71597414 -11.15573024 13.73497351 -11.16015625 10.75390625 C-11.16789818 9.35078941 -11.16789818 9.35078941 -11.17579651 7.91932678 C-11.17587204 7.05850998 -11.17594757 6.19769318 -11.17602539 5.31079102 C-11.178246 4.54912125 -11.18046661 3.78745148 -11.18275452 3.00270081 C-10.85680135 -1.74804275 -3.55180697 0.01913431 0 0 Z M-2.0625 9.25 C-2.0625 14.2 -2.0625 19.15 -2.0625 24.25 C0.33 24.1675 2.7225 24.085 5.1875 24 C5.93418945 23.98420898 6.68087891 23.96841797 7.45019531 23.95214844 C10.78916498 23.78151793 12.71266693 23.41483052 15.42578125 21.42578125 C17.28408506 19.20381495 17.28408506 19.20381495 16.875 15.6875 C15.86997409 11.71001847 15.86997409 11.71001847 12.9375 9.25 C10.26856037 9.03123446 7.90249713 8.96664705 5.25 9.0625 C1.6303125 9.1553125 1.6303125 9.1553125 -2.0625 9.25 Z " fill="#FDFDFD" transform="translate(259.0625,247.75)"/>
<path d="M0 0 C2.97 0 5.94 0 9 0 C9.33 5.94 9.66 11.88 10 18 C16.27 18 22.54 18 29 18 C28.96042519 12.45026879 28.96042519 12.45026879 28.90991211 6.90063477 C28.90276909 4.93354026 28.94968107 2.96646379 29 1 C30 0 30 0 31.8125 -0.1328125 C32.534375 -0.13023437 33.25625 -0.12765625 34 -0.125 C34.721875 -0.12757813 35.44375 -0.13015625 36.1875 -0.1328125 C38 0 38 0 39 1 C39.09268999 2.35094982 39.11747326 3.70667091 39.11352539 5.06079102 C39.11344986 5.92160782 39.11337433 6.78242462 39.11329651 7.66932678 C39.10813522 8.60473801 39.10297394 9.54014923 39.09765625 10.50390625 C39.0962413 11.45692123 39.09482635 12.40993622 39.09336853 13.39183044 C39.08775152 16.44875165 39.07519616 19.50560077 39.0625 22.5625 C39.05748719 24.62955624 39.05292391 26.69661362 39.04882812 28.76367188 C39.03777656 33.84247588 39.02050055 38.9212257 39 44 C35.7 44 32.4 44 29 44 C29 38.72 29 33.44 29 28 C22.4 27.67 15.8 27.34 9 27 C9 32.61 9 38.22 9 44 C5.7 44 2.4 44 -1 44 C-0.67 29.48 -0.34 14.96 0 0 Z " fill="#FDFDFD" transform="translate(438,248)"/>
<path d="M0 0 C6.27 0 12.54 0 19 0 C18.67 17.49 18.34 34.98 18 53 C13.96423344 54.00894164 10.36293071 54.11303696 6.25 54.0625 C5.55261719 54.05798828 4.85523438 54.05347656 4.13671875 54.04882812 C2.42444197 54.0371002 0.71220967 54.01916653 -1 54 C-1.02526648 46.47030348 -1.04283141 38.9406178 -1.05493164 31.41088867 C-1.0599737 28.84708243 -1.06680714 26.28327909 -1.07543945 23.71948242 C-1.08751064 20.04344979 -1.09322942 16.36745502 -1.09765625 12.69140625 C-1.10281754 11.53725723 -1.10797882 10.38310822 -1.11329651 9.19398499 C-1.11337204 8.13296066 -1.11344757 7.07193634 -1.11352539 5.97875977 C-1.115746 5.03944107 -1.11796661 4.10012238 -1.12025452 3.13233948 C-1 1 -1 1 0 0 Z " fill="#FEFEFE" transform="translate(644,176)"/>
<path d="M0 0 C3.4375 0.1875 3.4375 0.1875 4.4375 1.1875 C4.51075168 4.05017567 4.52988205 6.888219 4.5 9.75 C4.49548828 10.55630859 4.49097656 11.36261719 4.48632812 12.19335938 C4.47450518 14.19143756 4.45656914 16.18947783 4.4375 18.1875 C7.89816073 16.27347018 10.40254986 14.40617858 12.9375 11.375 C13.53304687 10.67632812 14.12859375 9.97765625 14.7421875 9.2578125 C15.78988375 7.97836777 16.81998708 6.68400006 17.8203125 5.3671875 C19.68304786 2.94211694 20.95501338 1.36070032 23.875 0.3125 C26.73619776 0.17292938 29.57349215 0.12089517 32.4375 0.1875 C31.90030385 4.15379821 30.05821224 5.82415399 27.1875 8.5 C23.32421566 12.11048553 20.41986264 15.84615296 17.4375 20.1875 C19.35281485 22.75101289 21.26999544 25.31312472 23.1875 27.875 C23.72632813 28.59623047 24.26515625 29.31746094 24.8203125 30.06054688 C25.34882812 30.76630859 25.87734375 31.47207031 26.421875 32.19921875 C26.93685547 32.88806152 27.45183594 33.5769043 27.98242188 34.28662109 C29.21802106 35.90077801 30.51689017 37.46618933 31.828125 39.01953125 C33.4375 41.1875 33.4375 41.1875 33.4375 44.1875 C29.60881895 44.81061265 26.24345154 45.02984285 22.4375 44.1875 C19.37820452 41.26957677 17.52627204 37.83335666 15.4375 34.1875 C13.84301238 32.11020315 12.15520024 30.16545786 10.4375 28.1875 C7.7537973 29.38935173 7.7537973 29.38935173 5.4375 32.1875 C4.68369613 36.17947545 4.50766333 40.13078377 4.4375 44.1875 C1.4675 44.1875 -1.5025 44.1875 -4.5625 44.1875 C-4.75455195 38.24299867 -4.93330791 32.2983049 -5.09960938 26.35302734 C-5.15810279 24.32948009 -5.22026484 22.30603548 -5.28613281 20.28271484 C-5.38003791 17.37877083 -5.460856 14.47471633 -5.5390625 11.5703125 C-5.57125885 10.66193634 -5.6034552 9.75356018 -5.6366272 8.81765747 C-5.65679901 7.97693695 -5.67697083 7.13621643 -5.69775391 6.27001953 C-5.71996002 5.52833527 -5.74216614 4.786651 -5.76504517 4.02249146 C-5.3451111 0.21802924 -3.50021014 0.18422159 0 0 Z " fill="#FCFCFC" transform="translate(640.5625,247.8125)"/>
<path d="M0 0 C2.64 0 5.28 0 8 0 C12.92400444 9.60650458 17.56578273 19.30145085 21.94116211 29.17089844 C23.48248725 32.64507392 25.0368073 36.0723088 26.76171875 39.4609375 C28 42 28 42 28 44 C24.7 44 21.4 44 18 44 C16.68 41.36 15.36 38.72 14 36 C7.4 35.67 0.8 35.34 -6 35 C-6.66 37.31 -7.32 39.62 -8 42 C-10 44 -10 44 -12.1640625 44.1953125 C-12.97617187 44.17210937 -13.78828125 44.14890625 -14.625 44.125 C-15.44226563 44.10695313 -16.25953125 44.08890625 -17.1015625 44.0703125 C-17.72804688 44.04710937 -18.35453125 44.02390625 -19 44 C-19 40.13100753 -17.3872887 37.5854497 -15.625 34.25 C-10.55343573 24.41445082 -6.24115964 14.26006945 -1.90454102 4.08447266 C-1.30653756 2.70640153 -0.67181666 1.34363333 0 0 Z M3 13 C2.29866401 14.57725347 1.614417 16.16211333 0.9375 17.75 C0.55464844 18.63171875 0.17179687 19.5134375 -0.22265625 20.421875 C-1.04600008 23.15256309 -0.9773992 24.36901347 0 27 C1.27875 27.020625 2.5575 27.04125 3.875 27.0625 C4.59429687 27.07410156 5.31359375 27.08570313 6.0546875 27.09765625 C8.08185404 27.12649242 8.08185404 27.12649242 10 26 C9.5978125 25.01 9.5978125 25.01 9.1875 24 C7.74294953 20.35060933 6.37128822 16.67754567 5 13 C4.34 13 3.68 13 3 13 Z " fill="#FCFCFC" transform="translate(407,248)"/>
<path d="M0 0 C2.97 0 5.94 0 9 0 C9.01981934 0.82201904 9.03963867 1.64403809 9.06005859 2.4909668 C9.15544603 6.22346126 9.26507089 9.9554067 9.375 13.6875 C9.4059375 14.98107422 9.436875 16.27464844 9.46875 17.60742188 C9.50742187 18.85458984 9.54609375 20.10175781 9.5859375 21.38671875 C9.6173584 22.53358154 9.6487793 23.68044434 9.68115234 24.86206055 C9.99998554 27.99985771 10.53692871 30.2143836 12 33 C16.02702645 35.6846843 19.2713959 35.5643542 24 35 C27.28931514 33.27310955 27.8140267 32.5579199 29 29 C29.15109093 26.79040747 29.24873801 24.57699953 29.31640625 22.36328125 C29.35830078 21.06455078 29.40019531 19.76582031 29.44335938 18.42773438 C29.48316987 17.05599239 29.52288216 15.68424756 29.5625 14.3125 C29.60570835 12.92902355 29.64932339 11.54555973 29.69335938 10.16210938 C29.79958028 6.77484281 29.90162358 3.38750201 30 0 C32.64 0 35.28 0 38 0 C40.22603893 4.45207787 38.9166155 10.6549158 38.75805664 15.60302734 C38.6880002 17.85889315 38.63356509 20.114782 38.58007812 22.37109375 C38.53741545 23.80732042 38.49382581 25.24351991 38.44921875 26.6796875 C38.41143311 27.98663574 38.37364746 29.29358398 38.3347168 30.64013672 C38.03095846 33.68924116 37.61082522 35.44355847 36 38 C35.34 38 34.68 38 34 38 C33.67 38.99 33.34 39.98 33 41 C27.49991194 44.66672538 21.27308566 45.41522917 14.7890625 44.78515625 C9.73383772 43.76830069 6.48722296 41.73051759 3 38 C-0.88333742 30.47145434 -0.3416188 22.75456434 -0.1875 14.5 C-0.17242613 13.09116014 -0.1587425 11.68230468 -0.14648438 10.2734375 C-0.11129724 6.84855604 -0.06206079 3.42448237 0 0 Z " fill="#FDFDFD" transform="translate(291,248)"/>
<path d="M0 0 C4.96622349 -0.02465098 9.93241166 -0.04283649 14.89868164 -0.05493164 C16.58944316 -0.0599719 18.28020029 -0.06680405 19.97094727 -0.07543945 C22.39600707 -0.08751857 24.82100944 -0.09323123 27.24609375 -0.09765625 C28.38672523 -0.10539818 28.38672523 -0.10539818 29.55039978 -0.11329651 C31.3673257 -0.11349238 33.18413127 -0.06197277 35 0 C36 1 36 1 36.125 4.5 C36 8 36 8 35 9 C32.98405418 9.23427778 30.961526 9.41336124 28.9375 9.5625 C27.83277344 9.64628906 26.72804688 9.73007812 25.58984375 9.81640625 C24.73519531 9.87699219 23.88054688 9.93757813 23 10 C23.00785522 11.49164673 23.00785522 11.49164673 23.01586914 13.01342773 C23.03392041 16.69033921 23.04543246 20.36724675 23.05493164 24.04418945 C23.05997157 25.63794614 23.0668035 27.23169819 23.07543945 28.82543945 C23.08751999 31.11150253 23.09323155 33.39750467 23.09765625 35.68359375 C23.10281754 36.40026718 23.10797882 37.11694061 23.11329651 37.85533142 C23.11349263 39.57063672 23.06192007 41.28581266 23 43 C22.67 43.33 22.34 43.66 22 44 C19.03 44 16.06 44 13 44 C13 32.45 13 20.9 13 9 C8.71 9 4.42 9 0 9 C-1.125 2.25 -1.125 2.25 0 0 Z " fill="#FEFEFE" transform="translate(496,248)"/>
<path d="M0 0 C0.02897435 4.27081914 0.04678996 8.54161309 0.0625 12.8125 C0.07087891 14.02744141 0.07925781 15.24238281 0.08789062 16.49414062 C0.09272461 18.23920898 0.09272461 18.23920898 0.09765625 20.01953125 C0.10551147 21.62985229 0.10551147 21.62985229 0.11352539 23.27270508 C0 26 0 26 -1 29 C-5.21938637 29.96694271 -5.21938637 29.96694271 -8 29 C-10.37992374 26.35515774 -12.2735492 23.58854584 -14.203125 20.6015625 C-15.90305119 17.79785727 -15.90305119 17.79785727 -19 16 C-19.06058594 16.85464844 -19.12117188 17.70929688 -19.18359375 18.58984375 C-19.26738281 19.69457031 -19.35117187 20.79929688 -19.4375 21.9375 C-19.51871094 23.03964844 -19.59992188 24.14179688 -19.68359375 25.27734375 C-20 28 -20 28 -21 29 C-22.98 29 -24.96 29 -27 29 C-27 19.43 -27 9.86 -27 0 C-20 0 -20 0 -17.85546875 1.79296875 C-17.30503906 2.58316406 -16.75460937 3.37335938 -16.1875 4.1875 C-15.62417969 4.96480469 -15.06085938 5.74210938 -14.48046875 6.54296875 C-13.01870188 8.96896178 -11.96757916 11.34269724 -11 14 C-10.01 14 -9.02 14 -8 14 C-8 9.38 -8 4.76 -8 0 C-2 -1 -2 -1 0 0 Z M-20 12 C-19 14 -19 14 -19 14 Z M-9 15 C-8.67 15.99 -8.34 16.98 -8 18 C-8 17.01 -8 16.02 -8 15 C-8.33 15 -8.66 15 -9 15 Z " fill="#FCFCFC" transform="translate(336,128)"/>
<path d="M0 0 C1.98 0 3.96 0 6 0 C7.07268883 3.2180665 7.12923759 5.56293914 7.1328125 8.9453125 C7.13474609 10.68361328 7.13474609 10.68361328 7.13671875 12.45703125 C7.13285156 13.66746094 7.12898437 14.87789062 7.125 16.125 C7.13080078 17.95224609 7.13080078 17.95224609 7.13671875 19.81640625 C7.13542969 20.97269531 7.13414062 22.12898438 7.1328125 23.3203125 C7.13168457 24.38523926 7.13055664 25.45016602 7.12939453 26.54736328 C7 29 7 29 6 30 C3.30078125 30.4921875 3.30078125 30.4921875 0 30 C-2.33944089 28.00559821 -4.0338643 25.61850574 -5.8125 23.125 C-6.30169922 22.47402344 -6.79089844 21.82304687 -7.29492188 21.15234375 C-10.72433036 16.55133929 -10.72433036 16.55133929 -12 14 C-12.33 19.28 -12.66 24.56 -13 30 C-14.98 30 -16.96 30 -19 30 C-20.39850246 27.20299508 -20.0101384 25.01884641 -19.87890625 21.8984375 C-19.83056641 20.68671875 -19.78222656 19.475 -19.73242188 18.2265625 C-19.67634766 16.95554688 -19.62027344 15.68453125 -19.5625 14.375 C-19.51029297 13.09625 -19.45808594 11.8175 -19.40429688 10.5 C-19.2743123 7.333103 -19.13933598 4.16649713 -19 1 C-13.27441406 0.77148438 -13.27441406 0.77148438 -10.8046875 2.828125 C-10.16789063 3.62734375 -9.53109375 4.4265625 -8.875 5.25 C-6.36785817 8.33106586 -3.85520824 11.23362046 -1 14 C-1.01160156 13.15695313 -1.02320313 12.31390625 -1.03515625 11.4453125 C-1.04417969 10.34960938 -1.05320312 9.25390625 -1.0625 8.125 C-1.07410156 7.03445312 -1.08570313 5.94390625 -1.09765625 4.8203125 C-1 2 -1 2 0 0 Z " fill="#FDFDFD" transform="translate(558,127)"/>
<path d="M0 0 C3.6875 1.5 3.6875 1.5 6 3 C6 3.66 6 4.32 6 5 C6.66 5 7.32 5 8 5 C10.8095362 10.07877698 11.44913381 13.22632306 9.84765625 18.85546875 C8.17216148 23.09439331 5.97887877 25.88183743 1.98828125 28.13671875 C-3.16338149 30.26751119 -6.84205856 30.18753629 -11.98828125 28.0859375 C-15.78275097 26.03766064 -18.11680908 23.47198486 -20.3125 19.8125 C-21.35270798 15.55710374 -21.15231713 11.35796239 -21 7 C-20.34 7 -19.68 7 -19 7 C-17.31183067 5.35511706 -15.64646685 3.68662458 -14 2 C-9.54359745 -0.97093503 -5.2291213 -0.51397346 0 0 Z M-14 11 C-14.71235686 14.7992366 -14.31263988 16.43724821 -12.4375 19.8125 C-9.24450523 22.67800813 -7.25880812 23 -3 23 C-0.08669541 21.76993806 1.47142711 20.69675518 3.375 18.1875 C4.26089715 15.08685996 3.89945179 13.08383471 3 10 C1.56338689 7.47993156 1.56338689 7.47993156 -1 6 C-7.19885712 5.11444898 -10.2217441 5.56875714 -14 11 Z " fill="#FDFDFD" transform="translate(296,128)"/>
<path d="M0 0 C4.03300449 1.82495195 6.53568582 4.30352873 9 8 C10.04657516 13.32009041 10.44905962 16.99055987 8 22 C4.79147328 26.18080754 1.38131563 28.22814742 -3.59375 29.6875 C-9.173292 30.41211584 -13.48184749 28.06593687 -17.9375 24.9375 C-21.29197633 20.1599125 -22 14.77061723 -22 9 C-16.3868612 0.5802918 -9.76752228 -1.54292855 0 0 Z M-14 10 C-15.23674251 13.63293114 -15.34458203 15.24191953 -13.75 18.75 C-12.02635231 21.21081851 -12.02635231 21.21081851 -9 23 C-5.09168581 23.33262248 -2.28673668 23.23028561 1 21 C3.50031654 17.24952518 3.53603554 15.44143734 3 11 C1.08333333 7.91666667 1.08333333 7.91666667 -2 6 C-7.37276648 5.13651967 -10.34963177 5.92017668 -14 10 Z " fill="#FCFCFC" transform="translate(526,128)"/>
<path d="M0 0 C3.5 0.125 3.5 0.125 4.5 1.125 C4.59268999 2.47594982 4.61747326 3.83167091 4.61352539 5.18579102 C4.61344986 6.04660782 4.61337433 6.90742462 4.61329651 7.79432678 C4.60813522 8.72973801 4.60297394 9.66514923 4.59765625 10.62890625 C4.5962413 11.58192123 4.59482635 12.53493622 4.59336853 13.51683044 C4.58775152 16.57375165 4.57519616 19.63060077 4.5625 22.6875 C4.55748719 24.75455624 4.55292391 26.82161362 4.54882812 28.88867188 C4.53777656 33.96747588 4.52050055 39.0462257 4.5 44.125 C1.53 44.125 -1.44 44.125 -4.5 44.125 C-4.52464513 38.0194529 -4.54283371 31.91393449 -4.55493164 25.80834961 C-4.55997288 23.72956844 -4.56680574 21.65079084 -4.57543945 19.57202148 C-4.58751422 16.59097414 -4.59323024 13.60997351 -4.59765625 10.62890625 C-4.60539818 9.22578941 -4.60539818 9.22578941 -4.61329651 7.79432678 C-4.61337204 6.93350998 -4.61344757 6.07269318 -4.61352539 5.18579102 C-4.615746 4.42412125 -4.61796661 3.66245148 -4.62025452 2.87770081 C-4.39322456 -0.4312443 -3.40403147 0.12157255 0 0 Z " fill="#FDFDFD" transform="translate(622.5,247.875)"/>
<path d="M0 0 C1.6328125 1.10546875 1.6328125 1.10546875 3.9453125 3.10546875 C3.2853125 4.42546875 2.6253125 5.74546875 1.9453125 7.10546875 C-2.0546875 7.10546875 -2.0546875 7.10546875 -4.0546875 6.10546875 C-7.89083707 5.75026972 -10.20098384 5.55822281 -13.4921875 7.66796875 C-15.60887261 10.96999752 -15.40496954 13.25236627 -15.0546875 17.10546875 C-14.7246875 18.09546875 -14.3946875 19.08546875 -14.0546875 20.10546875 C-12.64035544 20.32910245 -11.22301132 20.53373351 -9.8046875 20.73046875 C-9.01578125 20.84648437 -8.226875 20.9625 -7.4140625 21.08203125 C-4.71397045 21.10885336 -3.39322678 20.37382904 -1.0546875 19.10546875 C1.1953125 19.48046875 1.1953125 19.48046875 2.9453125 20.10546875 C3.2753125 21.42546875 3.6053125 22.74546875 3.9453125 24.10546875 C-5.18100329 29.65283717 -5.18100329 29.65283717 -10.1875 28.69921875 C-15.75573066 27.15555084 -19.05725691 25.25730257 -22.0546875 20.10546875 C-23.30742254 15.29026845 -23.52659809 11.44668833 -21.8671875 6.73046875 C-16.79036104 -0.62217647 -8.70033713 -3.78778936 0 0 Z " fill="#FCFCFC" transform="translate(271.0546875,128.89453125)"/>
<path d="M0 0 C1.97709961 0.05317383 1.97709961 0.05317383 3.99414062 0.10742188 C5.8900293 0.17219727 5.8900293 0.17219727 7.82421875 0.23828125 C9.54838013 0.29495972 9.54838013 0.29495972 11.30737305 0.3527832 C14.16016473 0.67053261 15.88647373 1.20870493 18.3125 2.6875 C13.58024472 2.71231819 8.84802779 2.73041583 4.11572266 2.74243164 C2.50764302 2.74744375 0.8995679 2.75425519 -0.70849609 2.76293945 C-3.02702961 2.77514226 -5.34550259 2.78075964 -7.6640625 2.78515625 C-8.73317368 2.79289818 -8.73317368 2.79289818 -9.82388306 2.80079651 C-13.88606429 2.80124755 -17.70238106 2.47525607 -21.6875 1.6875 C-21.6875 1.3575 -21.6875 1.0275 -21.6875 0.6875 C-14.3769642 -0.5108627 -7.37846317 -0.2657266 0 0 Z " fill="#F4F5F4" transform="translate(412.6875,318.3125)"/>
<path d="" fill="#FFFFFF" transform="translate(0,0)"/>
<path d="M0 0 C3 1 3 1 3 1 Z " fill="#FFFFFF" transform="translate(559,126)"/>
<path d="M0 0 C3 1 3 1 3 1 Z " fill="#FFFFFF" transform="translate(331,126)"/>
<path d="" fill="#FFFFFF" transform="translate(0,0)"/>
<path d="" fill="#FFFFFF" transform="translate(0,0)"/>
</svg>
