<?xml version="1.0" encoding="UTF-8"?>
<svg version="1.1" xmlns="http://www.w3.org/2000/svg" width="500" height="500">
<path d="M0 0 C7.60026249 6.40727596 11.63064349 13.42085037 12.5078125 23.390625 C12.90151582 32.77503873 11.26693094 40.84282878 8.1875 49.75 C7.87941406 50.69746094 7.57132812 51.64492188 7.25390625 52.62109375 C6.58557663 54.67085109 5.89032333 56.71181233 5.1875 58.75 C4.5275 58.75 3.8675 58.75 3.1875 58.75 C2.92066406 59.47832031 2.65382813 60.20664062 2.37890625 60.95703125 C-2.29314471 71.90954415 -12.18904577 82.61449708 -21.43359375 90.0546875 C-23.33899686 92.39730775 -23.11588891 93.96301791 -23 96.9375 C-22.97292969 97.83855469 -22.94585937 98.73960937 -22.91796875 99.66796875 C-22.86576172 100.69857422 -22.86576172 100.69857422 -22.8125 101.75 C-25.20889333 101.21746815 -26.90202577 100.69517537 -29.01953125 99.3984375 C-33.6157671 98.33133939 -36.63945917 101.00288457 -40.5 103.375 C-42.11356515 104.31778446 -43.72943598 105.25663452 -45.34765625 106.19140625 C-46.11996582 106.64016113 -46.89227539 107.08891602 -47.68798828 107.55126953 C-54.22047481 111.23714736 -60.36020398 113.19797807 -67.8125 113.75 C-67.8125 116.72 -67.8125 119.69 -67.8125 122.75 C-69.1325 122.75 -70.4525 122.75 -71.8125 122.75 C-74.10263653 119.3147952 -73.99092973 117.764669 -73.8125 113.75 C-74.8025 114.08 -75.7925 114.41 -76.8125 114.75 C-81.05735523 113.91353681 -84.84419468 112.39553688 -88.4375 110 C-89.8125 107.75 -89.8125 107.75 -89.875 104.3125 C-88.46655536 99.59006799 -86.37912254 97.15151099 -82.03125 94.77734375 C-79.16432049 93.47143306 -76.98074912 92.75 -73.8125 92.75 C-73.76762451 91.69425781 -73.72274902 90.63851562 -73.67651367 89.55078125 C-72.58675991 64.37736133 -71.38479815 39.41038331 -65.8125 14.75 C-85.6197841 26.60435942 -105.96607234 48.85149165 -111.8125 71.75 C-112.2380507 74.74369972 -112.55808638 77.73720712 -112.8125 80.75 C-112.173125 80.853125 -111.53375 80.95625 -110.875 81.0625 C-110.194375 81.289375 -109.51375 81.51625 -108.8125 81.75 C-108.4825 82.74 -108.1525 83.73 -107.8125 84.75 C-110.82281744 85.68423645 -111.67900268 85.79449911 -114.8125 84.75 C-117.85158522 78.67182956 -117.15640473 67.8855778 -115.0859375 61.51416016 C-112.88675741 56.57409017 -109.90292827 52.16793567 -106.8125 47.75 C-105.89384829 46.38196879 -104.97588177 45.01347721 -104.05859375 43.64453125 C-101.73989294 40.25485913 -99.43027536 36.91706282 -96.8125 33.75 C-96.1525 33.75 -95.4925 33.75 -94.8125 33.75 C-94.59335938 33.20730469 -94.37421875 32.66460937 -94.1484375 32.10546875 C-92.36704749 28.9645969 -89.98376277 26.58214257 -87.4375 24.0625 C-86.91019287 23.53793213 -86.38288574 23.01336426 -85.83959961 22.47290039 C-79.85196832 16.63959406 -73.3245707 11.32832612 -66.05078125 7.171875 C-63.58910854 5.87366243 -63.58910854 5.87366243 -62.4375 3.0625 C-61.90125 2.299375 -61.365 1.53625 -60.8125 0.75 C-59.23620241 0.75 -57.65719392 0.7724718 -56.0859375 0.8984375 C-52.94195541 0.69316032 -50.47102783 -0.42980923 -47.5625 -1.625 C-32.5822198 -7.64782336 -13.72947371 -10.03220985 0 0 Z M-43.8125 2.75 C-45.58947266 3.26046875 -45.58947266 3.26046875 -47.40234375 3.78125 C-48.56894531 4.1628125 -49.73554687 4.544375 -50.9375 4.9375 C-51.99195313 5.28167969 -53.04640625 5.62585938 -54.1328125 5.98046875 C-58.80078142 9.06296135 -59.36117298 13.65086271 -60.47363281 18.82495117 C-61.16882505 22.45865158 -61.78479073 26.09779059 -62.375 29.75 C-62.5369989 30.73793045 -62.5369989 30.73793045 -62.70227051 31.74581909 C-65.89296457 51.31287142 -67.0291318 70.95964546 -67.8125 90.75 C-65.89050781 90.71519531 -65.89050781 90.71519531 -63.9296875 90.6796875 C-62.18231485 90.65935739 -60.43491501 90.64128707 -58.6875 90.625 C-57.77693848 90.61404297 -56.86637695 90.60308594 -55.92822266 90.59179688 C-50.4298028 90.58017436 -45.55051368 91.07535762 -40.1875 92.25 C-36.25018955 92.92244996 -34.49867492 93.09816682 -30.91015625 91.27734375 C-28.31821468 89.24109009 -26.07605409 87.14313142 -23.8125 84.75 C-23.00554687 83.945625 -22.19859375 83.14125 -21.3671875 82.3125 C-20.10261719 81.0440625 -20.10261719 81.0440625 -18.8125 79.75 C-17.51892578 78.45255859 -17.51892578 78.45255859 -16.19921875 77.12890625 C-2.30949092 62.63615116 6.55655232 45.27853549 6.1875 24.75 C5.69486336 17.25781778 3.21332632 11.37386515 -1.8125 5.75 C-13.56958272 -3.57640494 -30.43718578 -1.32003426 -43.8125 2.75 Z M-67.8125 95.75 C-67.8125 100.04 -67.8125 104.33 -67.8125 108.75 C-58.89743258 106.23052442 -50.96000938 103.15405912 -42.8125 98.75 C-43.4725 97.43 -44.1325 96.11 -44.8125 94.75 C-47.8958134 94.72088679 -50.97909125 94.70316318 -54.0625 94.6875 C-55.37154297 94.67493164 -55.37154297 94.67493164 -56.70703125 94.66210938 C-57.55136719 94.65888672 -58.39570312 94.65566406 -59.265625 94.65234375 C-60.04067383 94.64710693 -60.81572266 94.64187012 -61.61425781 94.63647461 C-64.14286135 94.69646443 -64.14286135 94.69646443 -67.8125 95.75 Z M-41.8125 95.75 C-41.4825 96.41 -41.1525 97.07 -40.8125 97.75 C-40.4825 97.09 -40.1525 96.43 -39.8125 95.75 C-40.4725 95.75 -41.1325 95.75 -41.8125 95.75 Z M-83.6875 102.4375 C-84.05875 102.870625 -84.43 103.30375 -84.8125 103.75 C-83.5035428 106.87197478 -83.5035428 106.87197478 -80.8125 108.75 C-78.4795134 108.79022391 -76.14543334 108.79320247 -73.8125 108.75 C-73.8125 105.12 -73.8125 101.49 -73.8125 97.75 C-77.61575586 97.75 -80.92340966 99.94981869 -83.6875 102.4375 Z " fill="#FCFCFC" transform="translate(115.8125,258.25)"/>
<path d="M0 0 C1.98 0.99 3.96 1.98 6 3 C6 3.66 6 4.32 6 5 C6.79277344 5.35771484 6.79277344 5.35771484 7.6015625 5.72265625 C10.70946535 7.37784229 13.52335724 9.38409548 16.375 11.4375 C16.99004395 11.87852051 17.60508789 12.31954102 18.23876953 12.77392578 C23.12818308 16.30869661 27.88182798 19.99651609 32.60473633 23.74951172 C37.69901132 27.79070113 42.88863134 31.69445781 48.10009766 35.58276367 C52.34319065 38.75093292 56.55978166 41.94974784 60.75 45.1875 C64.72730884 48.26007835 68.72395956 51.30391 72.75 54.3125 C78.42981552 58.55733567 84.06433867 62.85957381 89.68652344 67.18041992 C93.00739546 69.72895242 96.33583994 72.26077254 99.71875 74.7265625 C100.27755859 75.13583984 100.83636719 75.54511719 101.41210938 75.96679688 C102.89551291 77.0487874 104.38503488 78.12237566 105.875 79.1953125 C108 81 108 81 109 84 C100.42 84.33 91.84 84.66 83 85 C83 92.59 83 100.18 83 108 C80.03 108 77.06 108 74 108 C74 97.44 74 86.88 74 76 C76.52475462 74.73762269 78.31200466 74.90143596 81.125 74.9375 C82.49011719 74.95103516 82.49011719 74.95103516 83.8828125 74.96484375 C84.58148438 74.97644531 85.28015625 74.98804688 86 75 C75.01591583 66.42880665 63.990962 57.91451958 52.91503906 49.46240234 C44.13212106 42.75540606 35.39987075 35.98419077 26.68115234 29.1940918 C21.0382516 24.80135324 15.37617071 20.43455691 9.69921875 16.0859375 C7.1097796 14.08483691 4.54903307 12.05222699 2 10 C-2.38945461 11.45775245 -5.5980939 13.85289856 -9.125 16.75 C-14.72861595 21.25565086 -20.4411926 25.57504872 -26.25 29.8125 C-33.31441535 34.97846416 -40.26031283 40.27168031 -47.14819336 45.67016602 C-53.64648544 50.75279171 -60.23686534 55.70593796 -66.84643555 60.64257812 C-73.61344467 65.69927368 -80.32463673 70.82293907 -87 76 C-82.71 76.33 -78.42 76.66 -74 77 C-74 101.09 -74 125.18 -74 150 C-75.65 150 -77.3 150 -79 150 C-79.14543275 143.65444393 -79.28742517 137.30881694 -79.42724609 130.96313477 C-79.47499354 128.81337828 -79.52347188 126.66363787 -79.57275391 124.51391602 C-79.88185071 111.00512392 -80.05306836 97.51253025 -80 84 C-88.25 83.67 -96.5 83.34 -105 83 C-105 82.01 -105 81.02 -105 80 C-103.52466797 79.20722656 -103.52466797 79.20722656 -102.01953125 78.3984375 C-97.59130991 75.86389998 -93.67592864 72.79312289 -89.6875 69.625 C-88.08861754 68.36839303 -86.489657 67.11188541 -84.890625 65.85546875 C-83.67342773 64.89519775 -83.67342773 64.89519775 -82.43164062 63.91552734 C-78.61255536 60.90703909 -74.77560169 57.92166597 -70.9375 54.9375 C-70.19693359 54.36112793 -69.45636719 53.78475586 -68.69335938 53.19091797 C-62.1398782 48.09582919 -55.54853847 43.05111759 -48.94921875 38.015625 C-45.45925734 35.35260898 -41.97795752 32.67867536 -38.5 30 C-33.5079916 26.15615353 -28.50592239 22.32570492 -23.5 18.5 C-21.35521422 16.85998324 -19.21053667 15.21982508 -17.06591797 13.57958984 C-15.71367584 12.54567273 -14.36114786 11.51212934 -13.00830078 10.47900391 C-11.19195982 9.09156635 -9.37704915 7.70227969 -7.5625 6.3125 C-6.53253906 5.52488281 -5.50257813 4.73726562 -4.44140625 3.92578125 C-1.99634161 2.07451064 -1.99634161 2.07451064 0 0 Z " fill="#FCFCFC" transform="translate(214,152)"/>
<path d="M0 0 C3.49576562 2.22457812 5.48501506 4.16953589 7 8 C7.26481975 10.13766869 7.44563372 12.28666314 7.5625 14.4375 C7.78698002 18.39109712 8.12573724 22.13445806 9 26 C13.20811329 27.40270443 16.04411878 25.71451226 20 24.1875 C26.604527 21.73304369 32.97904432 19.87951497 40 19 C40.185625 17.63875 40.185625 17.63875 40.375 16.25 C40.93015248 13.36320708 41.31993358 11.3874628 43 9 C45.0625 8.1875 45.0625 8.1875 47 8 C48 9 48 9 48.0625 12.5625 C48.041875 13.696875 48.02125 14.83125 48 16 C48.81082031 15.9278125 49.62164062 15.855625 50.45703125 15.78125 C70.63495346 14.08996898 70.63495346 14.08996898 75 17 C74.505 18.485 74.505 18.485 74 20 C72.73285156 19.9690625 71.46570313 19.938125 70.16015625 19.90625 C64.81994551 19.90625 59.69856137 20.64309932 54.4375 21.5 C53.52419922 21.64308594 52.61089844 21.78617187 51.66992188 21.93359375 C49.44557264 22.28296798 47.2224079 22.63851822 45 23 C42.80366927 41.9825727 42.83869445 60.84676317 42.98632812 79.93164062 C42.99297989 80.96757355 42.99963165 82.00350647 43.00648499 83.0708313 C43.02011355 85.04082218 43.03849304 87.01078748 43.0622406 88.98068237 C43.06869095 89.86152496 43.0751413 90.74236755 43.08178711 91.64990234 C43.09004013 92.42055023 43.09829315 93.19119812 43.10679626 93.98519897 C43 96 43 96 42 99 C40.68 99 39.36 99 38 99 C36.96285478 95.88856433 36.79968139 93.50531904 36.68359375 90.23828125 C36.64169922 89.12001953 36.59980469 88.00175781 36.55664062 86.84960938 C36.51732422 85.68236328 36.47800781 84.51511719 36.4375 83.3125 C36.39431641 82.13365234 36.35113281 80.95480469 36.30664062 79.74023438 C36.20048824 76.82694117 36.09843758 73.91356243 36 71 C35.60965576 71.42659912 35.21931152 71.85319824 34.81713867 72.29272461 C34.2935376 72.84452393 33.76993652 73.39632324 33.23046875 73.96484375 C32.71637451 74.51519287 32.20228027 75.06554199 31.67260742 75.63256836 C30 77 30 77 26.3125 77.5625 C22.75580488 76.9585329 22.14882599 76.70103825 20 74 C19.05078125 71.73828125 19.05078125 71.73828125 18.3125 69.3125 C18.06113281 68.50425781 17.80976563 67.69601562 17.55078125 66.86328125 C17.36902344 66.24839844 17.18726563 65.63351562 17 65 C14.8925805 66.98835625 13.65248173 68.57919712 12.125 71.125 C10 74 10 74 7.25 74.875 C6.5075 74.91625 5.765 74.9575 5 75 C1.46209597 71.30827405 1.40884117 67.90609405 1 63 C-1.47133215 69.04807498 -2.92611011 74.88902276 -4.0625 81.3125 C-4.31737183 82.70734619 -4.31737183 82.70734619 -4.57739258 84.13037109 C-4.90961664 85.95146293 -5.2390836 87.77306048 -5.56542969 89.59521484 C-6.08016824 92.44362763 -6.63645614 95.28342308 -7.1875 98.125 C-8.00735584 102.62701539 -8.42894789 107.12481933 -8.75390625 111.6875 C-9 114 -9 114 -10 117 C-11.32 117 -12.64 117 -14 117 C-14.16590688 109.86115323 -13.71938476 102.95458998 -12.8125 95.875 C-12.6794043 94.8329541 -12.54630859 93.7909082 -12.40917969 92.71728516 C-10.53906991 78.80023776 -7.56693443 65.12955578 -4.12109375 51.5234375 C-0.57293824 37.36201 2.79407992 23.68605248 1 9 C0.34 8.01 -0.32 7.02 -1 6 C-5.63826091 6.44598663 -8.44124272 6.96846602 -12 10 C-12.66 10 -13.32 10 -14 10 C-14 10.66 -14 11.32 -14 12 C-15.66187904 13.33929594 -17.32939929 14.67159915 -19 16 C-27.97791298 26.36179167 -34.07164199 38.20698072 -34.25 52 C-34.27578125 53.19625 -34.3015625 54.3925 -34.328125 55.625 C-33.96750327 59.33425203 -33.32589815 61.11179681 -31 64 C-28.7763302 65.42701818 -28.7763302 65.42701818 -26.3125 66.3125 C-25.50425781 66.63863281 -24.69601562 66.96476562 -23.86328125 67.30078125 C-23.24839844 67.53152344 -22.63351562 67.76226562 -22 68 C-22.33 69.32 -22.66 70.64 -23 72 C-31.98554466 72.4568921 -31.98554466 72.4568921 -36 69 C-41.60423723 60.82084297 -42.2320597 52.94610034 -40.50390625 43.203125 C-36.09007429 27.54274944 -25.26010541 11.72007227 -11.80078125 2.4921875 C-7.85241986 0.34127063 -4.4523563 -0.79153001 0 0 Z M28.9375 26.25 C28.17123291 26.47453857 27.40496582 26.69907715 26.61547852 26.93041992 C21.18434317 28.55924234 16.09777548 30.49745568 11 33 C11 33.66 11 34.32 11 35 C9.35 35 7.7 35 6 35 C3.13400685 41.34612769 1.64275858 48.03379238 2 55 C3.65 55 5.3 55 7 55 C7.268125 54.360625 7.53625 53.72125 7.8125 53.0625 C9 51 9 51 12 50 C12.350625 50.474375 12.70125 50.94875 13.0625 51.4375 C15.84163543 53.67873825 18.5144717 53.67117658 22 54 C22.12117188 54.86882812 22.24234375 55.73765625 22.3671875 56.6328125 C22.53476562 57.78523438 22.70234375 58.93765625 22.875 60.125 C23.03742188 61.26195312 23.19984375 62.39890625 23.3671875 63.5703125 C23.97431417 66.86078915 24.86345633 69.85779103 26 73 C31.36734245 70.61410346 34.46468693 67.3024496 37 62 C38.39824683 55.60312122 38.30229 48.95582382 38.4375 42.4375 C38.4989162 40.64767967 38.5633427 38.85795996 38.63085938 37.06835938 C38.78868455 32.71262671 38.90555411 28.35754883 39 24 C35.52974618 24 32.24687607 25.27797852 28.9375 26.25 Z M5 55 C6 57 6 57 6 57 Z M10 61 C10.33 61.99 10.66 62.98 11 64 C11.33 63.01 11.66 62.02 12 61 C11.34 61 10.68 61 10 61 Z M3 63 C4 66 4 66 4 66 Z M9 64 C10 66 10 66 10 66 Z " fill="#FCFCFC" transform="translate(336,256)"/>
<path d="M0 0 C0.33 0.66 0.66 1.32 1 2 C1.99 2.33 2.98 2.66 4 3 C3.75148178 7.22480975 3.39147413 9.49978306 0.75 12.875 C-2.00818413 15.0063241 -3.57421081 15.70636093 -7 16 C-6.34 17.65 -5.68 19.3 -5 21 C1.26108717 20.6704691 5.48077303 19.51922697 10 15 C11.15521502 12.52869082 11.15521502 12.52869082 12 10 C14.24807856 7.39696167 15.97029159 5.41188336 19.1875 4.125 C21 4 21 4 23 5 C22.51118919 9.39929732 21.11865181 10.98194986 18 14 C18 14.99 18 15.98 18 17 C18.556875 17.2475 19.11375 17.495 19.6875 17.75 C22.39861227 19.21546609 24.61623338 21.05503619 27 23 C29.41988509 21.25431175 31.83591141 19.50367249 34.25 17.75 C34.93191406 17.25886719 35.61382812 16.76773437 36.31640625 16.26171875 C41.00742635 12.84592742 44.87910478 9.54501774 48.3125 4.8125 C51 2 51 2 54.5625 1 C57.82889767 1 59.34438268 1.19418023 62 3 C62 4.65 62 6.3 62 8 C61.01 8 60.02 8 59 8 C59.08693141 9.79258558 59.19510504 11.58415144 59.3125 13.375 C59.37050781 14.37273437 59.42851562 15.37046875 59.48828125 16.3984375 C59.74158203 17.68621094 59.74158203 17.68621094 60 19 C60.99 19.66 61.98 20.32 63 21 C67.61206749 19.05268262 69.9486675 17.61549814 72 13 C72.32925589 11.60802389 72.64090921 10.21180013 72.9375 8.8125 C74 5 74 5 76 3.4375 C78 3 78 3 80 4 C79.90460938 5.24136719 79.80921875 6.48273438 79.7109375 7.76171875 C79.59835106 9.4036043 79.48640556 11.0455339 79.375 12.6875 C79.31054688 13.50412109 79.24609375 14.32074219 79.1796875 15.16210938 C78.8901743 19.63146934 78.8260378 22.92589526 81 27 C85.48280187 25.59111941 87.85942414 23.45463345 91 20 C91.845625 19.113125 92.69125 18.22625 93.5625 17.3125 C96.30624831 13.99929449 97.65634162 10.28392173 99.10546875 6.26953125 C100 4 100 4 102 1 C102.99 1 103.98 1 105 1 C105 1.99 105 2.98 105 4 C107.38162009 5.41385911 107.38162009 5.41385911 110 6 C111.66821323 6.32550502 113.33499557 6.65846063 115 7 C115.93619813 10.15506142 116.1057123 12.96586502 116.0625 16.25 C116.05347656 17.14203125 116.04445312 18.0340625 116.03515625 18.953125 C116.01775391 19.96632813 116.01775391 19.96632813 116 21 C117.32 21.33 118.64 21.66 120 22 C120 22.66 120 23.32 120 24 C123.9252025 20.29909479 126.94580156 16.45040344 130 12 C130.99 12.33 131.98 12.66 133 13 C132.46322564 17.15448646 131.19850793 19.45962335 128.5625 22.6875 C127.94503906 23.45449219 127.32757813 24.22148437 126.69140625 25.01171875 C123.3265123 28.96721764 123.3265123 28.96721764 121.0546875 29.1953125 C119.03645833 29.13020833 117.01822917 29.06510417 115 29 C114.16180842 27.37750059 113.3295884 25.75191503 112.5 24.125 C111.80390625 22.76761719 111.80390625 22.76761719 111.09375 21.3828125 C110 19 110 19 110 17 C107.24274815 19.63827516 107.24274815 19.63827516 104.90234375 22.63671875 C103.75 24.3125 103.75 24.3125 101 27 C99.00519135 26.74260534 97.00676504 26.47382416 95.04296875 26.0390625 C92.24533144 25.98557039 91.42724256 26.97021274 89.4375 28.875 C88.87160156 29.42542969 88.30570312 29.97585938 87.72265625 30.54296875 C84.89244847 32.93677261 82.62788854 33.20154936 79 33 C75.27349072 30.18441521 73.39403247 27.43555787 72 23 C71.319375 23.495 70.63875 23.99 69.9375 24.5 C66.27568094 26.36986505 64.06785405 26.50848176 60 26 C57.24670979 24.20437595 55.47372539 22.94745078 54 20 C53.34 20 52.68 20 52 20 C51.7525 20.763125 51.505 21.52625 51.25 22.3125 C49.89004442 25.2364045 48.68414174 26.30004356 46 28 C43.37812506 26.95125002 42.20628639 26.35068687 40.75 23.875 C40.5025 23.25625 40.255 22.6375 40 22 C35.77807509 22.64952691 33.02998791 23.97001209 30 27 C29.47220059 30.51718433 29.36851861 33.95805251 29.2578125 37.51171875 C28.80444162 43.64596411 26.45697101 47.32448334 22.5 51.875 C17.51651255 56.11096433 17.51651255 56.11096433 13.4375 55.8125 C10.73839101 54.912797 9.71098707 54.24598598 8 52 C7.6294057 44.10349066 12.02813956 38.60303204 17 33 C20.00285821 29.8710861 20.00285821 29.8710861 21 26 C20.34 26 19.68 26 19 26 C19 25.34 19 24.68 19 24 C18.1028125 23.566875 18.1028125 23.566875 17.1875 23.125 C15 22 15 22 12 20 C11.12988281 20.63228516 11.12988281 20.63228516 10.2421875 21.27734375 C2.08235294 27 2.08235294 27 -3 27 C-6.62092545 26.29001462 -8.40517428 25.69738188 -10.8125 22.875 C-12.2788471 19.32489649 -13.33684682 15.86641563 -13 12 C-11.05011572 7.8067706 -8.63003285 5.71599578 -4.8125 3.1875 C-3.91144531 2.58292969 -3.01039063 1.97835938 -2.08203125 1.35546875 C-1.39496094 0.90816406 -0.70789063 0.46085937 0 0 Z M54 6 C53.34 7.32 52.68 8.64 52 10 C53.65 8.68 55.3 7.36 57 6 C56.01 6 55.02 6 54 6 Z M-2 7 C-2.99 8.485 -2.99 8.485 -4 10 C-3.01 9.67 -2.02 9.34 -1 9 C-1.33 8.34 -1.66 7.68 -2 7 Z M105 7 C106 9 106 9 106 9 Z M51 10 C51 13 51 13 51 13 Z M103 11 C103.33 12.32 103.66 13.64 104 15 C104.66 13.68 105.32 12.36 106 11 C105.01 11 104.02 11 103 11 Z M49 13 C50 16 50 16 50 16 Z M102 15 C103 17 103 17 103 17 Z M47 17 C48 19 48 19 48 19 Z M41 18 C40.67 18.66 40.34 19.32 40 20 C40.66 20 41.32 20 42 20 C41.67 19.34 41.34 18.68 41 18 Z M18.4375 38.125 C15.70039313 40.79754854 15.70039313 40.79754854 15.6875 44.3125 C15.790625 45.199375 15.89375 46.08625 16 47 C16.99 47.33 17.98 47.66 19 48 C20.06652192 45.69631264 21.06421005 43.35981813 22 41 C21.67 40.34 21.34 39.68 21 39 C21.66 39 22.32 39 23 39 C22.67 38.01 22.34 37.02 22 36 C20.57346491 35.89361069 20.57346491 35.89361069 18.4375 38.125 Z " fill="#FCFCFC" transform="translate(135,304)"/>
<path d="M0 0 C1 1 1 1 1.375 3.75 C0.87930229 8.04604679 -0.7441372 9.27416138 -4 12 C-7 14 -7 14 -10 14 C-9.34 15.65 -8.68 17.3 -8 19 C-2.61764077 19.82805527 0.78162446 18.00120878 5.07421875 15 C8.37121938 11.57593443 8.71794426 7.60387748 9 3 C10.9375 2.4375 10.9375 2.4375 13 2 C15.04698414 4.04698414 14.70045693 8.30411241 15 11 C15.33 10.67 15.66 10.34 16 10 C17.68608966 9.92794489 19.37500659 9.91613932 21.0625 9.9375 C21.98160156 9.94652344 22.90070313 9.95554687 23.84765625 9.96484375 C24.55792969 9.97644531 25.26820313 9.98804688 26 10 C26.185625 8.329375 26.185625 8.329375 26.375 6.625 C27 3 27 3 29 1 C30.32 1 31.64 1 33 1 C33.09478359 5.26526136 32.8674408 9.32171572 32.375 13.5625 C31.94052582 17.88343496 32.14991035 20.97333429 34 25 C39.71810241 23.67020874 41.52912262 21.43500999 45 17 C45.66 17 46.32 17 47 17 C47.25910156 16.43410156 47.51820313 15.86820312 47.78515625 15.28515625 C49.120718 12.77292595 50.67882623 10.67271763 52.4375 8.4375 C53.33275391 7.29087891 53.33275391 7.29087891 54.24609375 6.12109375 C57.32376997 2.39909333 57.32376997 2.39909333 59 1 C59.99 1 60.98 1 62 1 C62.0825 2.216875 62.165 3.43375 62.25 4.6875 C62.74278 8.87245257 64.34295842 10.74298129 67 14 C67.25 17.3125 67.25 17.3125 67 20 C66.34 20 65.68 20 65 20 C64.443125 21.8253125 64.443125 21.8253125 63.875 23.6875 C62.1356425 28.29843829 60.19095047 30.40161071 56 33 C53.25 33.0625 53.25 33.0625 51 32 C48.90137502 29.10189884 49 27.71621139 49 24 C45.15199046 24.54971565 43.64690561 26.27037858 41 29 C38.2197859 31.01325849 36.96006164 30.99859865 33.4375 30.875 C30 30 30 30 28.359375 28.3046875 C26.76043352 25.59383845 26.29263485 23.35240983 25.8125 20.25 C25.65394531 19.26515625 25.49539063 18.2803125 25.33203125 17.265625 C25.22246094 16.51796875 25.11289062 15.7703125 25 15 C20.89845766 15.05676228 20.89845766 15.05676228 17 16 C15.45014484 18.58309194 14.73453027 20.18890297 14 23 C13.79761719 23.66644531 13.59523438 24.33289063 13.38671875 25.01953125 C12.89245585 26.67043658 12.4419155 28.33431849 12 30 C10.68 29.67 9.36 29.34 8 29 C7.67 26.36 7.34 23.72 7 21 C4.85 20.8 4.85 20.8 3 22.5 C-1.2195559 24.60977795 -5.35666678 24.7701138 -10 24 C-12.53997761 22.58008196 -13.73457103 21.74842267 -14.71484375 18.984375 C-15.25971281 13.51656621 -14.90237285 9.86849639 -12 5 C-8.51981557 0.95684456 -5.42945728 -0.75759869 0 0 Z M58 12 C59 14 59 14 59 14 Z M57 14 C58 16 58 16 58 16 Z M58 18 C59 20 59 20 59 20 Z M55 21 C55 22.65 55 24.3 55 26 C55.99 25.01 56.98 24.02 58 23 C57.01 22.34 56.02 21.68 55 21 Z " fill="#FCFCFC" transform="translate(398,306)"/>
<path d="M0 0 C1.76171875 1.2109375 1.76171875 1.2109375 3 3 C3.42734641 8.4811822 2.37361398 13.59963394 -1 18 C-0.01 18 0.98 18 2 18 C2.33 18.66 2.66 19.32 3 20 C3.99 20 4.98 20 6 20 C6 21.65 6 23.3 6 25 C8.33524782 22.74259377 10.18705073 20.7194239 12 18 C15.66666667 18 19.33333333 18 23 18 C23.495 21.96 23.495 21.96 24 26 C25.98 23.36 27.96 20.72 30 18 C31.32 18.33 32.64 18.66 34 19 C34 19.99 34 20.98 34 22 C34.495 22.99 34.495 22.99 35 24 C35.66 24 36.32 24 37 24 C36.95875 22.96875 36.9175 21.9375 36.875 20.875 C36.99575149 17.13170373 37.64872018 14.46265453 39 11 C39.66 11 40.32 11 41 11 C41 13.97 41 16.94 41 20 C42.98 20.495 42.98 20.495 45 21 C46.25 23.5625 46.25 23.5625 47 26 C47.66 24.68 48.32 23.36 49 22 C49.66 22 50.32 22 51 22 C49.83620352 25.31234384 48.88761214 27.8898219 46 30 C44.68 30 43.36 30 42 30 C41.34 31.65 40.68 33.3 40 35 C39.01 34.67 38.02 34.34 37 34 C37 31.69 37 29.38 37 27 C36.401875 27.20625 35.80375 27.4125 35.1875 27.625 C33 28 33 28 30 26 C30 26.66 30 27.32 30 28 C25.92630576 30.03684712 23.41062136 30.0257259 19 29 C18.67 27.35 18.34 25.7 18 24 C17.46375 24.28875 16.9275 24.5775 16.375 24.875 C8.49773756 28.60633484 8.49773756 28.60633484 4 27 C1.57202689 27 -0.62907005 27.50085685 -3 28 C-3.66 26.68 -4.32 25.36 -5 24 C-6.94074861 24.27617533 -6.94074861 24.27617533 -9 25 C-9.66 25.99 -10.32 26.98 -11 28 C-9.63986419 31.14791257 -8.21946401 32.91363823 -5.5234375 35.015625 C-4.853125 35.54414063 -4.1828125 36.07265625 -3.4921875 36.6171875 C-2.79351562 37.15601563 -2.09484375 37.69484375 -1.375 38.25 C-0.66859375 38.80429687 0.0378125 39.35859375 0.765625 39.9296875 C2.50531083 41.29322504 4.25009481 42.64961945 6 44 C5.67 44.66 5.34 45.32 5 46 C0.60316512 44.80086322 -2.09840934 43.5711885 -5 40 C-5 39.34 -5 38.68 -5 38 C-6.98 37.67 -8.96 37.34 -11 37 C-11 40.63 -11 44.26 -11 48 C-12.32 48 -13.64 48 -15 48 C-15 42.72 -15 37.44 -15 32 C-16.98 31.67 -18.96 31.34 -21 31 C-20.67 30.01 -20.34 29.02 -20 28 C-17.4375 26.8125 -17.4375 26.8125 -15 26 C-15.20625 24.7625 -15.4125 23.525 -15.625 22.25 C-16.06107124 18.88090165 -16.03403639 16.87158079 -14 14 C-14.99 13.67 -15.98 13.34 -17 13 C-17 13.99 -17 14.98 -17 16 C-17.66 16 -18.32 16 -19 16 C-19.08226668 19.04386724 -18.97608217 21.07175348 -18 24 C-18.33 24.66 -18.66 25.32 -19 26 C-20.32 25.67 -21.64 25.34 -23 25 C-23.72340142 18.34470689 -21.70297701 13.52353372 -18 8 C-12.69676987 2.39256929 -8.08759782 -1.3452638 0 0 Z M-9 4 C-10.72678334 9.56407966 -11.25182442 15.20803845 -11 21 C-6.15183587 18.92822487 -3.61267988 15.48348769 -1 11 C-0.21739579 8.4994841 -0.05419461 6.655536 0 4 C-1.11101184 2.66351983 -1.11101184 2.66351983 -3.9375 2.875 C-6.91545728 2.78674336 -6.91545728 2.78674336 -9 4 Z M-14 8 C-14.33 8.66 -14.66 9.32 -15 10 C-14.10836423 12.11683841 -14.10836423 12.11683841 -13 14 C-13 12.02 -13 10.04 -13 8 C-13.33 8 -13.66 8 -14 8 Z M16 21 C17 23 17 23 17 23 Z M40 23 C41 26 41 26 41 26 Z " fill="#FBFBFB" transform="translate(195,338)"/>
<path d="M0 0 C0 0.66 0 1.32 0 2 C-5.28 1.67 -10.56 1.34 -16 1 C-17.9156294 8.96431886 -17.9156294 8.96431886 -17 17 C-16.236875 16.79375 -15.47375 16.5875 -14.6875 16.375 C-12 16 -12 16 -9 18 C-9 18.99 -9 19.98 -9 21 C-8.54625 20.34 -8.0925 19.68 -7.625 19 C-7.08875 18.34 -6.5525 17.68 -6 17 C-5.34 17 -4.68 17 -4 17 C-4.33 18.32 -4.66 19.64 -5 21 C-1.98968256 21.93423645 -1.13349732 22.04449911 2 21 C2 19.68 2 18.36 2 17 C2.99 17 3.98 17 5 17 C5.495 20.465 5.495 20.465 6 24 C9.36191527 22.26738174 9.36191527 22.26738174 9.6953125 18.59375 C9.85208161 17.23065583 9.9947939 15.86588749 10.125 14.5 C10.90350356 7.19299287 10.90350356 7.19299287 12 5 C12.66 5 13.32 5 14 5 C14 9.29 14 13.58 14 18 C15.65 17.34 17.3 16.68 19 16 C18.34 20.29 17.68 24.58 17 29 C17.99 29.33 18.98 29.66 20 30 C19.505 30.99 19.505 30.99 19 32 C16.03 31.67 13.06 31.34 10 31 C9.67 29.35 9.34 27.7 9 26 C8.34 26.66 7.68 27.32 7 28 C6.195625 27.814375 5.39125 27.62875 4.5625 27.4375 C2.03152019 26.69794474 2.03152019 26.69794474 0.375 28.125 C-1.10884247 30.06234439 -1.10884247 30.06234439 -2.4375 32.625 C-4 35 -4 35 -6.125 35.875 C-6.74375 35.91625 -7.3625 35.9575 -8 36 C-8.33 35.67 -8.66 35.34 -9 35 C-8.62056512 30.90210331 -8.30694043 28.46041065 -6 25 C-7.27875 25.165 -8.5575 25.33 -9.875 25.5 C-13.76167195 26.00150606 -16.08099855 25.97975036 -20 25 C-20.66 31.27 -21.32 37.54 -22 44 C-23.485 44.495 -23.485 44.495 -25 45 C-24.96519531 44.18917969 -24.93039062 43.37835938 -24.89453125 42.54296875 C-24.64059788 32.15588466 -25.71245518 23.45566372 -32 15 C-32 14.34 -32 13.68 -32 13 C-32.928125 12.731875 -33.85625 12.46375 -34.8125 12.1875 C-39.4516129 10.45920304 -39.4516129 10.45920304 -41 8 C-40.87109375 5.53125 -40.87109375 5.53125 -40 3 C-29.01664746 -3.70754555 -11.69152168 -5.26334186 0 0 Z M-29.1875 2.5 C-30.27417969 2.7784375 -31.36085938 3.056875 -32.48046875 3.34375 C-33.31191406 3.5603125 -34.14335937 3.776875 -35 4 C-34.67331168 6.94020379 -34.67331168 6.94020379 -34 10 C-33.2575 10.5775 -32.515 11.155 -31.75 11.75 C-27.72257409 15.04516665 -26.10029153 19.31679675 -24 24 C-23.67 24 -23.34 24 -23 24 C-21.515 12.615 -21.515 12.615 -20 1 C-23.31544299 1 -25.98001389 1.67226165 -29.1875 2.5 Z M1 23 C0.67 23.66 0.34 24.32 0 25 C0.66 25 1.32 25 2 25 C1.67 24.34 1.34 23.68 1 23 Z M13 27 C13.66 27.66 14.32 28.32 15 29 C15 28.34 15 27.68 15 27 C14.34 27 13.68 27 13 27 Z " fill="#FAFBFA" transform="translate(295,340)"/>
<path d="M0 0 C1.32 0 2.64 0 4 0 C4.33 2.31 4.66 4.62 5 7 C6.37285156 7.09087891 6.37285156 7.09087891 7.7734375 7.18359375 C8.96195312 7.26738281 10.15046875 7.35117187 11.375 7.4375 C12.55835938 7.51871094 13.74171875 7.59992188 14.9609375 7.68359375 C18 8 18 8 20 9 C20 9.99 20 10.98 20 12 C19.09636719 12.08636719 18.19273437 12.17273438 17.26171875 12.26171875 C16.08222656 12.40222656 14.90273438 12.54273438 13.6875 12.6875 C12.51574219 12.81511719 11.34398437 12.94273437 10.13671875 13.07421875 C6.87376228 13.71445135 6.87376228 13.71445135 5.15625 16.28125 C4.0773043 18.81823042 3.33658594 21.11144168 2.8125 23.8125 C2.65394531 24.60269531 2.49539063 25.39289063 2.33203125 26.20703125 C2.22246094 26.79871094 2.11289062 27.39039063 2 28 C0.35 27.67 -1.3 27.34 -3 27 C-2.89000392 23.24940197 -2.75940131 19.49979656 -2.625 15.75 C-2.5940625 14.68652344 -2.563125 13.62304688 -2.53125 12.52734375 C-2.49257813 11.50253906 -2.45390625 10.47773438 -2.4140625 9.421875 C-2.3826416 8.47924805 -2.3512207 7.53662109 -2.31884766 6.56542969 C-1.99399023 3.95164571 -1.32323838 2.25646966 0 0 Z M3 7 C4 10 4 10 4 10 Z " fill="#FCFCFC" transform="translate(468,308)"/>
<path d="M0 0 C1.65 0.33 3.3 0.66 5 1 C5.6875 3.3125 5.6875 3.3125 6 6 C4.8125 7.875 4.8125 7.875 3 9 C0.8125 8.6875 0.8125 8.6875 -1 8 C-1.625 5.6875 -1.625 5.6875 -2 3 C-1.34 2.01 -0.68 1.02 0 0 Z " fill="#FCFCFC" transform="translate(214,290)"/>
<path d="M0 0 C1.65 0.33 3.3 0.66 5 1 C5.6875 3.3125 5.6875 3.3125 6 6 C4.5625 7.8125 4.5625 7.8125 3 9 C-0.75283733 7.54728878 -0.75283733 7.54728878 -1.875 5.0625 C-2 3 -2 3 0 0 Z " fill="#FCFCFC" transform="translate(430,290)"/>
<path d="M0 0 C0.66 0 1.32 0 2 0 C2 1.32 2 2.64 2 4 C2.99 3.67 3.98 3.34 5 3 C4.67 4.32 4.34 5.64 4 7 C3.34 7 2.68 7 2 7 C0.5393715 4.35261084 0 3.10551666 0 0 Z " fill="#F1F2F2" transform="translate(181,357)"/>
<path d="M0 0 C0.99 0.33 1.98 0.66 3 1 C2.34 2.32 1.68 3.64 1 5 C0.01 4.34 -0.98 3.68 -2 3 C-1.34 2.01 -0.68 1.02 0 0 Z " fill="#F6F9F8" transform="translate(299,351)"/>
<path d="M0 0 C2 1 2 1 2 1 Z " fill="#FFFFFF" transform="translate(197,365)"/>
<path d="" fill="#FFFFFF" transform="translate(0,0)"/>
<path d="" fill="#FFFFFF" transform="translate(0,0)"/>
<path d="" fill="#FFFFFF" transform="translate(0,0)"/>
<path d="" fill="#FFFFFF" transform="translate(0,0)"/>
<path d="" fill="#FFFFFF" transform="translate(0,0)"/>
<path d="" fill="#FFFFFF" transform="translate(0,0)"/>
<path d="" fill="#FFFFFF" transform="translate(0,0)"/>
<path d="" fill="#FFFFFF" transform="translate(0,0)"/>
<path d="" fill="#FFFFFF" transform="translate(0,0)"/>
<path d="" fill="#FFFFFF" transform="translate(0,0)"/>
<path d="" fill="#FFFFFF" transform="translate(0,0)"/>
<path d="" fill="#FFFFFF" transform="translate(0,0)"/>
</svg>
